<svg width="26" height="25" viewBox="0 0 26 25" fill="none" xmlns="http://www.w3.org/2000/svg">
<path fill-rule="evenodd" clip-rule="evenodd" d="M0.0424805 3.89991C0.0424805 1.74605 1.81098 0 3.99254 0H21.3728C23.5543 0 25.3228 1.74605 25.3228 3.89991V21.0595C25.3228 23.2134 23.5543 24.9594 21.3728 24.9594H3.99254C1.81098 24.9594 0.0424805 23.2134 0.0424805 21.0595V3.89991ZM12.6827 6.23985C16.1587 6.23985 19.0028 9.04779 19.0028 12.4797C19.0028 15.5996 16.7117 18.2516 13.5517 18.7196V14.2737H15.0527L15.3687 12.4797H13.6307V11.3097C13.6307 10.8417 13.8677 10.3738 14.6577 10.3738H15.4477V8.81379C15.4477 8.81379 14.7367 8.6578 14.0257 8.6578C12.6037 8.6578 11.6556 9.51578 11.6556 11.0757V12.4797H10.0756V14.2737H11.6556V18.6416C8.6536 18.1736 6.36257 15.5996 6.36257 12.4797C6.36257 9.04779 9.20661 6.23985 12.6827 6.23985Z" fill="white"/>
</svg>
