<svg width="114" height="26" viewBox="0 0 114 26" fill="none" xmlns="http://www.w3.org/2000/svg">
<g clip-path="url(#clip0_161_1463)">
<path d="M101.4 0.874512H64.9934H62.7587H11.8259C5.30618 0.874512 0.000610352 6.35655 0.000610352 13.0932C0.000610352 19.8298 5.30618 25.3118 11.8259 25.3118H62.7587H64.9934H101.4C107.92 25.3118 113.226 19.8298 113.226 13.0932C113.226 6.35655 107.92 0.874512 101.4 0.874512ZM62.7587 23.0028H11.8259C6.53713 23.0028 2.23532 18.5579 2.23532 13.0932C2.23532 7.62845 6.53713 3.18355 11.8259 3.18355H62.7587V23.0028Z" fill="white"/>
<path d="M10.7216 8.24432H14.9861C16.0048 8.24432 16.9061 8.44444 17.6883 8.8466C18.4704 9.24876 19.0775 9.81447 19.5114 10.5437C19.9453 11.273 20.1613 12.1235 20.1613 13.0933C20.1613 14.0631 19.9453 14.9136 19.5114 15.6429C19.0775 16.3721 18.4704 16.9379 17.6883 17.34C16.9061 17.7422 16.0048 17.9423 14.9861 17.9423H10.7216V8.24432ZM14.8781 16.1008C15.8167 16.1008 16.5653 15.8314 17.124 15.2907C17.6827 14.75 17.962 14.0188 17.962 13.0952C17.962 12.1716 17.6827 11.4404 17.124 10.8997C16.5653 10.359 15.8167 10.0896 14.8781 10.0896H12.8948V16.1028H14.8781V16.1008Z" fill="white"/>
<path d="M27.7761 17.9423L25.966 15.2407H25.858H23.9678V17.9423H21.7964V8.24432H25.8598C26.6904 8.24432 27.413 8.38864 28.0256 8.67342C28.6383 8.96013 29.1095 9.36613 29.4409 9.89336C29.7724 10.4206 29.9363 11.044 29.9363 11.7637C29.9363 12.4833 29.7687 13.1049 29.4335 13.6263C29.0983 14.1478 28.6216 14.548 28.0051 14.8251L30.1095 17.9423H27.7761ZM27.2267 10.5091C26.8878 10.2186 26.3906 10.0723 25.7388 10.0723H23.9696V13.4531H25.7388C26.3906 13.4531 26.8878 13.305 27.2267 13.0106C27.5657 12.7162 27.737 12.2986 27.737 11.7637C27.737 11.2191 27.5675 10.8016 27.2267 10.5091Z" fill="white"/>
<path d="M32.6905 16.959C31.9437 16.1932 31.5713 15.0983 31.5713 13.6763V8.24432H33.7427V13.5917C33.7427 15.3292 34.4392 16.197 35.834 16.197C36.5137 16.197 37.0314 15.9873 37.389 15.5659C37.7465 15.1464 37.9253 14.4883 37.9253 13.5917V8.24432H40.0706V13.6744C40.0706 15.0964 39.6982 16.1913 38.9514 16.9571C38.2047 17.7248 37.1618 18.1078 35.821 18.1078C34.4801 18.1078 33.4373 17.7268 32.6905 16.959Z" fill="white"/>
<path d="M48.559 12.9412H50.5442V16.8761C50.0339 17.2725 49.4454 17.5785 48.775 17.7901C48.1046 18.0018 47.4305 18.1096 46.7507 18.1096C45.7768 18.1096 44.8996 17.894 44.1231 17.4649C43.3447 17.0359 42.7357 16.4393 42.2925 15.6774C41.8493 14.9154 41.6295 14.0553 41.6295 13.0932C41.6295 12.133 41.8511 11.271 42.2925 10.509C42.7338 9.74699 43.3502 9.15048 44.1361 8.72139C44.922 8.29229 45.8066 8.07678 46.7917 8.07678C47.6148 8.07678 48.3597 8.21917 49.0301 8.50588C49.7006 8.79258 50.263 9.20821 50.7192 9.75276L49.3244 11.0824C48.654 10.3531 47.8457 9.98751 46.8979 9.98751C46.2982 9.98751 45.7675 10.1164 45.3019 10.3762C44.8363 10.634 44.475 10.9996 44.2162 11.4711C43.9573 11.9425 43.827 12.4832 43.827 13.0912C43.827 13.6916 43.9573 14.2265 44.2162 14.6979C44.475 15.1694 44.8345 15.5369 45.2963 15.7986C45.7563 16.0622 46.2814 16.1931 46.8718 16.1931C47.4975 16.1931 48.0599 16.0545 48.5608 15.7774V12.9412H48.559Z" fill="white"/>
<path d="M53.4864 17.7978C52.7937 17.59 52.2369 17.3206 51.8179 16.9877L52.5553 15.2983C52.9576 15.6023 53.4362 15.8486 53.9893 16.0333C54.5442 16.2181 55.0973 16.3104 55.6523 16.3104C56.2687 16.3104 56.7249 16.2161 57.0191 16.0256C57.3134 15.8371 57.4624 15.585 57.4624 15.2714C57.4624 15.0405 57.3748 14.848 57.2016 14.696C57.0266 14.544 56.8031 14.4209 56.5312 14.3285C56.2593 14.2361 55.8888 14.1342 55.4251 14.0245C54.71 13.8494 54.1252 13.6743 53.669 13.4972C53.2127 13.3221 52.8216 13.0393 52.4957 12.6525C52.1698 12.2638 52.006 11.7482 52.006 11.1016C52.006 10.5378 52.1531 10.0279 52.4492 9.56996C52.7453 9.112 53.1885 8.75025 53.7825 8.48279C54.3766 8.21532 55.1029 8.08063 55.9614 8.08063C56.561 8.08063 57.1458 8.15375 57.7175 8.30191C58.2892 8.45007 58.7902 8.66174 59.2185 8.93882L58.5481 10.6437C57.6803 10.1357 56.8143 9.88168 55.9465 9.88168C55.3394 9.88168 54.8887 9.98366 54.5982 10.1857C54.3077 10.3897 54.1624 10.6571 54.1624 10.99C54.1624 11.3229 54.3301 11.5692 54.6653 11.7308C55.0005 11.8925 55.5126 12.0522 56.1998 12.208C56.9149 12.3831 57.4996 12.5582 57.9559 12.7353C58.4121 12.9104 58.8032 13.1875 59.1291 13.5665C59.455 13.9456 59.6189 14.4574 59.6189 15.104C59.6189 15.6581 59.4699 16.1642 59.1701 16.6202C58.8702 17.0782 58.4214 17.4399 57.8218 17.7074C57.2221 17.9749 56.494 18.1096 55.6355 18.1096C54.8962 18.1096 54.1792 18.0056 53.4864 17.7978Z" fill="white"/>
<path d="M75.0011 8.24432V17.9423H73.217L68.5372 12.0542V17.9423H66.3918V8.24432H68.1889L72.8557 14.1324V8.24432H75.0011Z" fill="#023047"/>
<path d="M79.139 17.4572C78.3569 17.0224 77.7442 16.4258 77.3029 15.6639C76.8615 14.9019 76.6399 14.0456 76.6399 13.0931C76.6399 12.1426 76.8615 11.2844 77.3029 10.5224C77.7442 9.76042 78.3569 9.162 79.139 8.72905C79.9212 8.29418 80.8002 8.07867 81.7741 8.07867C82.7481 8.07867 83.6252 8.29611 84.4018 8.72905C85.1802 9.16392 85.791 9.76042 86.238 10.5224C86.6849 11.2844 86.9084 12.1407 86.9084 13.0931C86.9084 14.0437 86.6849 14.9019 86.238 15.6639C85.791 16.4258 85.1784 17.0243 84.4018 17.4572C83.6252 17.8902 82.7481 18.1076 81.7741 18.1076C80.7983 18.1095 79.9193 17.8921 79.139 17.4572ZM83.2751 15.8024C83.7221 15.5388 84.0722 15.1713 84.3273 14.7018C84.5824 14.2303 84.7091 13.6954 84.7091 13.0951C84.7091 12.4947 84.5824 11.9598 84.3273 11.4884C84.0722 11.0169 83.7221 10.6494 83.2751 10.3877C82.8282 10.1241 82.3272 9.99325 81.7741 9.99325C81.2192 9.99325 80.7201 10.1241 80.2732 10.3877C79.8262 10.6513 79.4761 11.0189 79.221 11.4884C78.9659 11.9579 78.8392 12.4947 78.8392 13.0951C78.8392 13.6954 78.9659 14.2303 79.221 14.7018C79.4761 15.1732 79.8262 15.5407 80.2732 15.8024C80.7201 16.066 81.221 16.1969 81.7741 16.1969C82.3272 16.1969 82.8282 16.066 83.2751 15.8024Z" fill="#023047"/>
<path d="M90.3535 10.074H87.3497V8.24603H95.5287V10.074H92.5249V17.944H90.3535V10.074Z" fill="#023047"/>
<path d="M103.963 16.1412V17.9423H96.6963V8.24432H103.79V10.0454H98.8546V12.1504H103.212V13.8957H98.8546V16.1393H103.963V16.1412Z" fill="#023047"/>
</g>
<defs>
<clipPath id="clip0_161_1463">
<rect width="113.225" height="24.4373" fill="white" transform="translate(0.000610352 0.874512)"/>
</clipPath>
</defs>
</svg>
