<svg width="26" height="25" viewBox="0 0 26 25" fill="none" xmlns="http://www.w3.org/2000/svg">
<path d="M12.6464 14.6714C11.4608 14.6714 10.4333 13.735 10.4333 12.4865C10.4333 11.316 11.3818 10.3016 12.6464 10.3016C13.8319 10.3016 14.8594 11.238 14.8594 12.4865C14.8594 13.657 13.8319 14.6714 12.6464 14.6714Z" fill="white"/>
<path fill-rule="evenodd" clip-rule="evenodd" d="M15.3336 7.18023H9.95912C9.32683 7.25826 9.01068 7.33629 8.77357 7.41433C8.45742 7.49236 8.22031 7.64843 7.9832 7.88253C7.79558 8.06777 7.70693 8.25301 7.59978 8.47691C7.57154 8.53592 7.54194 8.59777 7.50898 8.66286C7.49675 8.69908 7.48264 8.73716 7.4675 8.77798C7.38482 9.001 7.27187 9.30567 7.27187 9.83336V15.1396C7.35091 15.7639 7.42994 16.076 7.50898 16.3101C7.58802 16.6223 7.74609 16.8564 7.9832 17.0905C8.17083 17.2757 8.35845 17.3632 8.58523 17.469C8.64505 17.4969 8.70759 17.5261 8.77357 17.5587C8.81025 17.5707 8.84882 17.5847 8.89016 17.5996C9.11606 17.6812 9.42464 17.7928 9.95912 17.7928H15.3336C15.9659 17.7147 16.2821 17.6367 16.5192 17.5587C16.8353 17.4806 17.0724 17.3246 17.3095 17.0905C17.4972 16.9052 17.5858 16.72 17.693 16.4961C17.7212 16.437 17.7508 16.3753 17.7838 16.3101C17.796 16.2739 17.8101 16.2358 17.8252 16.195C17.9079 15.972 18.0209 15.6673 18.0209 15.1396V9.83336C17.9418 9.20909 17.8628 8.89696 17.7838 8.66286C17.7047 8.35073 17.5466 8.11663 17.3095 7.88253C17.1219 7.69729 16.9343 7.60976 16.7075 7.50398C16.6478 7.47612 16.585 7.44684 16.5192 7.41433C16.4825 7.40226 16.4439 7.38832 16.4026 7.37338C16.1767 7.29174 15.8681 7.18023 15.3336 7.18023ZM12.6464 9.13106C10.7495 9.13106 9.24779 10.6137 9.24779 12.4865C9.24779 14.3593 10.7495 15.8419 12.6464 15.8419C14.5433 15.8419 16.045 14.3593 16.045 12.4865C16.045 10.6137 14.5433 9.13106 12.6464 9.13106ZM16.9144 9.05303C16.9144 9.48399 16.5605 9.83336 16.124 9.83336C15.6875 9.83336 15.3336 9.48399 15.3336 9.05303C15.3336 8.62206 15.6875 8.27269 16.124 8.27269C16.5605 8.27269 16.9144 8.62206 16.9144 9.05303Z" fill="white"/>
<path fill-rule="evenodd" clip-rule="evenodd" d="M0.000488281 3.90283C0.000488281 1.748 1.76979 0.00115967 3.95233 0.00115967H21.3404C23.523 0.00115967 25.2923 1.748 25.2923 3.90283V21.0702C25.2923 23.225 23.523 24.9718 21.3404 24.9718H3.95233C1.76979 24.9718 0.000488281 23.225 0.000488281 21.0702V3.90283ZM9.95912 6.00973H15.3336C16.045 6.08776 16.5192 6.16579 16.9144 6.32186C17.3886 6.55596 17.7047 6.71203 18.0999 7.10219C18.4951 7.49236 18.7322 7.88253 18.8903 8.27269C19.0483 8.66286 19.2064 9.13106 19.2064 9.83336V15.1396C19.1274 15.8419 19.0483 16.3101 18.8903 16.7003C18.6532 17.1685 18.4951 17.4806 18.0999 17.8708C17.7047 18.261 17.3095 18.4951 16.9144 18.6511C16.5192 18.8072 16.045 18.9633 15.3336 18.9633H9.95912C9.24779 18.8852 8.77357 18.8072 8.37839 18.6511C7.90416 18.417 7.58802 18.261 7.19283 17.8708C6.79765 17.4806 6.56054 17.0905 6.40247 16.7003C6.24439 16.3101 6.08632 15.8419 6.08632 15.1396V9.83336C6.16536 9.13106 6.24439 8.66286 6.40247 8.27269C6.63958 7.80449 6.79765 7.49236 7.19283 7.10219C7.58802 6.71203 7.9832 6.47793 8.37839 6.32186C8.77357 6.16579 9.24779 6.00973 9.95912 6.00973Z" fill="white"/>
</svg>
