<svg width="26" height="25" viewBox="0 0 26 25" fill="none" xmlns="http://www.w3.org/2000/svg">
<path fill-rule="evenodd" clip-rule="evenodd" d="M0.0720215 3.89991C0.0720215 1.74605 1.84052 0 4.02208 0H21.4023C23.5839 0 25.3524 1.74605 25.3524 3.89991V21.0595C25.3524 23.2134 23.5839 24.9594 21.4023 24.9594H4.02208C1.84052 24.9594 0.0720215 23.2134 0.0720215 21.0595V3.89991ZM6.55011 10.3738V18.7196H9.23616V10.3738H6.55011ZM6.39211 7.72182C6.39211 8.5798 7.02412 9.20379 7.89313 9.20379C8.76215 9.20379 9.39416 8.5798 9.39416 7.72182C9.39416 6.86384 8.76215 6.23985 7.89313 6.23985C7.10312 6.23985 6.39211 6.86384 6.39211 7.72182ZM16.3463 18.7196H18.8743V13.5717C18.8743 10.9977 17.2943 10.1398 15.7932 10.1398C14.4502 10.1398 13.5022 10.9977 13.2652 11.5437V10.3738H10.7372V18.7196H13.4232V14.2737C13.4232 13.1037 14.2132 12.4797 15.0032 12.4797C15.7932 12.4797 16.3463 12.8697 16.3463 14.1957V18.7196Z" fill="white"/>
</svg>
