<svg width="26" height="25" viewBox="0 0 26 25" fill="none" xmlns="http://www.w3.org/2000/svg">
<path fill-rule="evenodd" clip-rule="evenodd" d="M4.05284 0H21.4331C23.6146 0 25.3831 1.74605 25.3831 3.89991V21.0595C25.3831 23.2134 23.6146 24.9594 21.4331 24.9594H4.05284C1.87128 24.9594 0.102783 23.2134 0.102783 21.0595V3.89991C0.102783 1.74605 1.87128 0 4.05284 0ZM13.2895 9.36553C12.1574 9.83043 9.89487 10.7926 6.50181 12.2522C5.95083 12.4685 5.6622 12.6801 5.63592 12.8871C5.59152 13.2368 6.03509 13.3745 6.63913 13.562C6.72129 13.5875 6.80643 13.614 6.8937 13.642C7.48798 13.8327 8.28739 14.0558 8.70297 14.0647C9.07994 14.0727 9.50068 13.9193 9.9652 13.6044C13.1354 11.4915 14.7719 10.4236 14.8747 10.4006C14.9472 10.3843 15.0476 10.3639 15.1157 10.4236C15.1837 10.4833 15.177 10.5965 15.1698 10.6268C15.1259 10.8117 13.3847 12.41 12.4836 13.2371C12.2027 13.4949 12.0034 13.6778 11.9627 13.7196C11.8715 13.8131 11.7785 13.9016 11.6891 13.9867C11.137 14.5122 10.723 14.9062 11.712 15.5497C12.1873 15.859 12.5676 16.1147 12.9471 16.3698C13.3615 16.6484 13.7748 16.9263 14.3095 17.2724C14.4457 17.3605 14.5759 17.4521 14.7026 17.5413C15.1848 17.8808 15.6181 18.1857 16.1533 18.1371C16.4643 18.1088 16.7856 17.8201 16.9488 16.9589C17.3343 14.9238 18.0923 10.5142 18.2674 8.69716C18.2828 8.53796 18.2635 8.33422 18.248 8.24478C18.2325 8.15534 18.2001 8.02791 18.0823 7.93358C17.9429 7.82186 17.7276 7.7983 17.6313 7.79989C17.1935 7.80759 16.5219 8.03817 13.2895 9.36553Z" fill="white"/>
</svg>
