<svg width="95" height="22" viewBox="0 0 95 22" fill="none" xmlns="http://www.w3.org/2000/svg">
<path d="M30.8906 8L29.5946 12.824L28.1906 8H25.6706L24.2666 12.824L22.9706 8H20.0906L22.9706 17H25.4906L26.9306 12.194L28.3706 17H30.8906L33.7706 8H30.8906ZM37.2626 13.58H43.6526C43.7246 13.238 43.7606 12.878 43.7606 12.5C43.7606 9.782 41.8166 7.748 39.1886 7.748C36.3446 7.748 34.4006 9.818 34.4006 12.5C34.4006 15.182 36.3086 17.252 39.3866 17.252C41.0966 17.252 42.4286 16.622 43.3106 15.398L41.1506 14.156C40.7906 14.552 40.1606 14.84 39.4226 14.84C38.4326 14.84 37.6046 14.516 37.2626 13.58ZM37.2086 11.564C37.4606 10.646 38.1446 10.142 39.1706 10.142C39.9806 10.142 40.7906 10.52 41.0786 11.564H37.2086ZM51.034 7.748C49.828 7.748 48.946 8.162 48.352 8.846V4.4H45.652V17H48.352V16.154C48.946 16.838 49.828 17.252 51.034 17.252C53.392 17.252 55.336 15.182 55.336 12.5C55.336 9.818 53.392 7.748 51.034 7.748ZM50.494 14.696C49.252 14.696 48.352 13.85 48.352 12.5C48.352 11.15 49.252 10.304 50.494 10.304C51.736 10.304 52.636 11.15 52.636 12.5C52.636 13.85 51.736 14.696 50.494 14.696ZM62.2309 8.882V8H59.5489V5.48L58.6309 5.75V8H56.6509V8.882H58.6309V14.732C58.6309 16.784 59.8729 17.36 62.2309 17V16.19C60.3949 16.352 59.5489 16.316 59.5489 14.732V8.882H62.2309ZM68.2555 7.802C65.5015 7.802 63.5935 9.854 63.5935 12.5C63.5935 15.218 65.5555 17.198 68.3275 17.198C70.1095 17.198 71.5135 16.388 72.2515 15.164L71.4595 14.696C70.9375 15.65 69.8215 16.334 68.3455 16.334C66.2935 16.334 64.7455 15.002 64.5295 12.968H72.6835C72.6835 12.824 72.7015 12.68 72.7015 12.536C72.7015 10.07 70.9915 7.802 68.2555 7.802ZM68.2555 8.666C70.0195 8.666 71.5675 9.89 71.7655 12.086H64.5295C64.7095 10.088 66.2035 8.666 68.2555 8.666ZM79.2871 17.198C81.0511 17.198 82.5631 16.298 83.2831 14.912L82.5271 14.462C81.9331 15.578 80.7451 16.334 79.2871 16.334C77.1091 16.334 75.4711 14.642 75.4711 12.5C75.4711 10.358 77.1091 8.666 79.2871 8.666C80.7271 8.666 81.9511 9.404 82.4731 10.538L83.2111 10.106C82.5631 8.702 81.0511 7.802 79.2871 7.802C76.5691 7.802 74.5531 9.836 74.5531 12.5C74.5531 15.164 76.5691 17.198 79.2871 17.198ZM89.737 7.802C88.351 7.802 87.199 8.378 86.515 9.71V4.4H85.615V17H86.515V12.248C86.515 9.818 87.901 8.666 89.665 8.666C91.357 8.666 92.311 9.746 92.311 11.402V17H93.229V11.402C93.229 9.224 91.879 7.802 89.737 7.802Z" fill="white" fill-opacity="0.5"/>
<path d="M8.00061 18.88C7.09394 18.88 6.24061 18.7093 5.44061 18.368C4.64061 18.0267 3.93661 17.5573 3.32861 16.96C2.73128 16.352 2.26194 15.648 1.92061 14.848C1.57928 14.048 1.40861 13.1947 1.40861 12.288C1.40861 11.3707 1.57928 10.5173 1.92061 9.728C2.26194 8.928 2.73128 8.22933 3.32861 7.632C3.93661 7.024 4.64061 6.54933 5.44061 6.208C6.24061 5.86667 7.09394 5.696 8.00061 5.696C8.91794 5.696 9.77128 5.86667 10.5606 6.208C11.3606 6.54933 12.0593 7.024 12.6566 7.632C13.2646 8.22933 13.7393 8.928 14.0806 9.728C14.4219 10.5173 14.5926 11.3707 14.5926 12.288C14.5926 13.1947 14.4219 14.048 14.0806 14.848C13.7393 15.648 13.2646 16.352 12.6566 16.96C12.0593 17.5573 11.3606 18.0267 10.5606 18.368C9.77128 18.7093 8.91794 18.88 8.00061 18.88ZM8.00061 17.984C8.78994 17.984 9.52594 17.84 10.2086 17.552C10.9019 17.2533 11.5099 16.8427 12.0326 16.32C12.5553 15.7973 12.9606 15.1947 13.2486 14.512C13.5473 13.8187 13.6966 13.0773 13.6966 12.288C13.6966 11.4987 13.5473 10.7627 13.2486 10.08C12.9606 9.38667 12.5553 8.77867 12.0326 8.256C11.5099 7.73333 10.9019 7.328 10.2086 7.04C9.52594 6.74133 8.78994 6.592 8.00061 6.592C7.21128 6.592 6.46994 6.74133 5.77661 7.04C5.09394 7.328 4.49128 7.73333 3.96861 8.256C3.44594 8.77867 3.03528 9.38667 2.73661 10.08C2.44861 10.7627 2.30461 11.4987 2.30461 12.288C2.30461 13.0773 2.44861 13.8187 2.73661 14.512C3.03528 15.1947 3.44594 15.7973 3.96861 16.32C4.49128 16.8427 5.09394 17.2533 5.77661 17.552C6.46994 17.84 7.21128 17.984 8.00061 17.984ZM8.43261 14.96C7.66461 14.96 7.06728 14.7253 6.64061 14.256C6.21394 13.7867 6.00061 13.136 6.00061 12.304C6.00061 11.4507 6.21928 10.7947 6.65661 10.336C7.10461 9.86667 7.71794 9.632 8.49661 9.632C9.01928 9.632 9.50461 9.73333 9.95261 9.936L9.68061 10.736C9.29661 10.5653 8.89661 10.48 8.48061 10.48C7.53128 10.48 7.05661 11.088 7.05661 12.304C7.05661 12.88 7.17394 13.328 7.40861 13.648C7.64328 13.9573 7.98461 14.112 8.43261 14.112C8.86994 14.112 9.34994 14 9.87261 13.776V14.64C9.61661 14.7467 9.37128 14.8267 9.13661 14.88C8.90194 14.9333 8.66728 14.96 8.43261 14.96Z" fill="white" fill-opacity="0.5"/>
</svg>
