<svg width="109" height="35" viewBox="0 0 109 35" fill="none" xmlns="http://www.w3.org/2000/svg">
<rect y="0.00012207" width="108.558" height="34.4208" rx="8" fill="white"/>
<path d="M53.5372 14.3797C51.6479 14.3797 50.108 15.8206 50.108 17.805C50.108 19.7774 51.6479 21.2303 53.5372 21.2303C55.4273 21.2303 56.9672 19.7774 56.9672 17.805C56.9664 15.8206 55.4265 14.3797 53.5372 14.3797ZM53.5372 19.8821C52.5017 19.8821 51.6093 19.026 51.6093 17.8058C51.6093 16.5728 52.5026 15.7296 53.5372 15.7296C54.5726 15.7296 55.4651 16.5728 55.4651 17.8058C55.4651 19.0252 54.5726 19.8821 53.5372 19.8821ZM46.0554 14.3797C44.166 14.3797 42.6261 15.8206 42.6261 17.805C42.6261 19.7774 44.166 21.2303 46.0554 21.2303C47.9455 21.2303 49.4854 19.7774 49.4854 17.805C49.4854 15.8206 47.9455 14.3797 46.0554 14.3797ZM46.0554 19.8821C45.0199 19.8821 44.1275 19.026 44.1275 17.8058C44.1275 16.5728 45.0207 15.7296 46.0554 15.7296C47.0908 15.7296 47.9833 16.5728 47.9833 17.8058C47.9841 19.0252 47.0908 19.8821 46.0554 19.8821ZM37.1566 15.4316V16.8845H40.6252C40.5215 17.7019 40.25 18.2987 39.8355 18.7135C39.3311 19.2193 38.5414 19.7774 37.1566 19.7774C35.0214 19.7774 33.3522 18.0515 33.3522 15.9108C33.3522 13.77 35.0214 12.0441 37.1566 12.0441C38.3085 12.0441 39.1495 12.4983 39.7705 13.0822L40.793 12.057C39.9255 11.2266 38.7744 10.5912 37.1566 10.5912C34.2318 10.5912 31.7729 12.9784 31.7729 15.9108C31.7729 18.8432 34.2318 21.2303 37.1566 21.2303C38.735 21.2303 39.9263 20.7109 40.8573 19.738C41.8148 18.7779 42.1128 17.4281 42.1128 16.3384C42.1128 16.0018 42.0871 15.6901 42.0349 15.4308H37.1566V15.4316ZM73.5519 16.5599C73.2675 15.7948 72.4 14.3797 70.6271 14.3797C68.8671 14.3797 67.4043 15.7682 67.4043 17.805C67.4043 19.7251 68.8542 21.2303 70.795 21.2303C72.3606 21.2303 73.2667 20.2703 73.6426 19.7122L72.4779 18.9334C72.0899 19.5044 71.5589 19.8805 70.795 19.8805C70.0319 19.8805 69.488 19.5302 69.1386 18.8424L73.7069 16.9481L73.5519 16.5599ZM68.8928 17.7019C68.8542 16.3779 69.9154 15.7038 70.6793 15.7038C71.2745 15.7038 71.779 16.0026 71.9477 16.4302L68.8928 17.7019ZM65.1792 21.0234H66.6797V10.9552H65.1792V21.0234ZM62.7195 15.1456H62.6681C62.3316 14.743 61.6841 14.3797 60.8696 14.3797C59.161 14.3797 57.5954 15.885 57.5954 17.8187C57.5954 19.7388 59.161 21.2312 60.8696 21.2312C61.6849 21.2312 62.3316 20.8679 62.6681 20.4531H62.7195V20.946C62.7195 22.2564 62.0207 22.9571 60.8953 22.9571C59.9763 22.9571 59.4068 22.2959 59.1738 21.7377L57.8669 22.283C58.242 23.1907 59.2381 24.3069 60.8953 24.3069C62.6553 24.3069 64.1438 23.2688 64.1438 20.7383V14.5883H62.7204V15.1456H62.7195ZM60.9989 19.8821C59.9635 19.8821 59.0967 19.0123 59.0967 17.8187C59.0967 16.6115 59.9635 15.7296 60.9989 15.7296C62.0207 15.7296 62.8232 16.6115 62.8232 17.8187C62.8232 19.0123 62.0207 19.8821 60.9989 19.8821ZM80.5838 10.9552H76.9923V21.0234H78.4905V17.2091H80.583C82.2442 17.2091 83.8781 16.0034 83.8781 14.0825C83.8781 12.1617 82.245 10.9552 80.5838 10.9552ZM80.6224 15.8077H78.4905V12.3566H80.6224C81.743 12.3566 82.3792 13.2868 82.3792 14.0825C82.3792 14.8622 81.743 15.8077 80.6224 15.8077ZM89.8859 14.362C88.8006 14.362 87.6768 14.8412 87.2117 15.9035L88.542 16.46C88.8263 15.9035 89.3565 15.7215 89.9116 15.7215C90.6868 15.7215 91.4748 16.1878 91.4876 17.0166V17.1205C91.2161 16.965 90.6345 16.7323 89.9244 16.7323C88.4906 16.7323 87.0302 17.5223 87.0302 18.9986C87.0302 20.346 88.2062 21.2134 89.5236 21.2134C90.5309 21.2134 91.0868 20.76 91.4354 20.2284H91.4868V21.0056H92.9344V17.1454C92.9352 15.3591 91.6033 14.362 89.8859 14.362ZM89.7043 19.8797C89.2143 19.8797 88.5291 19.6333 88.5291 19.0244C88.5291 18.2472 89.3822 17.9492 90.1188 17.9492C90.7767 17.9492 91.0876 18.0918 91.4876 18.2859C91.3712 19.2193 90.5703 19.8797 89.7043 19.8797ZM98.2055 14.5819L96.4873 18.9471H96.4359L94.6526 14.5819H93.038L95.7121 20.6827L94.1875 24.0766H95.7507L99.8723 14.5819H98.2055ZM84.7055 21.0234H86.2036V10.9552H84.7055V21.0234Z" fill="black"/>
<g filter="url(#filter0_ii_262_143)">
<path d="M8.31528 7.20406C8.08153 7.45212 7.94336 7.83709 7.94336 8.33563V26.1476C7.94336 26.6469 8.08153 27.0311 8.31528 27.2791L8.37472 27.3371L18.3266 17.3592V17.2416V17.124L8.37472 7.14526L8.31528 7.20406Z" fill="url(#paint0_linear_262_143)"/>
<path d="M21.6434 20.6863L18.3267 17.3593V17.2417V17.1241L21.6442 13.7979L21.7189 13.8405L25.6494 16.0795C26.7716 16.719 26.7716 17.7652 25.6494 18.4055L21.7189 20.6444L21.6434 20.6863Z" fill="url(#paint1_linear_262_143)"/>
<g filter="url(#filter1_i_262_143)">
<path d="M21.7191 20.6435L18.326 17.2416L8.31543 27.2791C8.68494 27.6721 9.29624 27.7205 9.98466 27.329L21.7191 20.6435Z" fill="url(#paint2_linear_262_143)"/>
</g>
<path d="M21.7191 13.8397L9.98466 7.15495C9.29624 6.76272 8.68494 6.81185 8.31543 7.20488L18.3268 17.2424L21.7191 13.8397Z" fill="url(#paint3_linear_262_143)"/>
</g>
<defs>
<filter id="filter0_ii_262_143" x="7.94336" y="6.88428" width="18.5476" height="20.7151" filterUnits="userSpaceOnUse" color-interpolation-filters="sRGB">
<feFlood flood-opacity="0" result="BackgroundImageFix"/>
<feBlend mode="normal" in="SourceGraphic" in2="BackgroundImageFix" result="shape"/>
<feColorMatrix in="SourceAlpha" type="matrix" values="0 0 0 0 0 0 0 0 0 0 0 0 0 0 0 0 0 0 127 0" result="hardAlpha"/>
<feOffset dy="-0.15"/>
<feComposite in2="hardAlpha" operator="arithmetic" k2="-1" k3="1"/>
<feColorMatrix type="matrix" values="0 0 0 0 0 0 0 0 0 0 0 0 0 0 0 0 0 0 0.12 0"/>
<feBlend mode="normal" in2="shape" result="effect1_innerShadow_262_143"/>
<feColorMatrix in="SourceAlpha" type="matrix" values="0 0 0 0 0 0 0 0 0 0 0 0 0 0 0 0 0 0 127 0" result="hardAlpha"/>
<feOffset dy="0.15"/>
<feComposite in2="hardAlpha" operator="arithmetic" k2="-1" k3="1"/>
<feColorMatrix type="matrix" values="0 0 0 0 1 0 0 0 0 1 0 0 0 0 1 0 0 0 0.25 0"/>
<feBlend mode="normal" in2="effect1_innerShadow_262_143" result="effect2_innerShadow_262_143"/>
</filter>
<filter id="filter1_i_262_143" x="8.31543" y="17.2416" width="13.4036" height="10.3578" filterUnits="userSpaceOnUse" color-interpolation-filters="sRGB">
<feFlood flood-opacity="0" result="BackgroundImageFix"/>
<feBlend mode="normal" in="SourceGraphic" in2="BackgroundImageFix" result="shape"/>
<feColorMatrix in="SourceAlpha" type="matrix" values="0 0 0 0 0 0 0 0 0 0 0 0 0 0 0 0 0 0 127 0" result="hardAlpha"/>
<feOffset dy="-0.15"/>
<feComposite in2="hardAlpha" operator="arithmetic" k2="-1" k3="1"/>
<feColorMatrix type="matrix" values="0 0 0 0 0 0 0 0 0 0 0 0 0 0 0 0 0 0 0.08 0"/>
<feBlend mode="normal" in2="shape" result="effect1_innerShadow_262_143"/>
</filter>
<linearGradient id="paint0_linear_262_143" x1="17.4445" y1="8.14716" x2="3.92851" y2="21.6279" gradientUnits="userSpaceOnUse">
<stop stop-color="#00A0FF"/>
<stop offset="0.0066" stop-color="#00A1FF"/>
<stop offset="0.2601" stop-color="#00BEFF"/>
<stop offset="0.5122" stop-color="#00D2FF"/>
<stop offset="0.7604" stop-color="#00DFFF"/>
<stop offset="1" stop-color="#00E3FF"/>
</linearGradient>
<linearGradient id="paint1_linear_262_143" x1="27.1102" y1="17.2417" x2="7.67396" y2="17.2417" gradientUnits="userSpaceOnUse">
<stop stop-color="#FFE000"/>
<stop offset="0.4087" stop-color="#FFBD00"/>
<stop offset="0.7754" stop-color="#FFA500"/>
<stop offset="1" stop-color="#FF9C00"/>
</linearGradient>
<linearGradient id="paint2_linear_262_143" x1="19.8764" y1="19.0891" x2="1.54707" y2="37.3706" gradientUnits="userSpaceOnUse">
<stop stop-color="#FF3A44"/>
<stop offset="1" stop-color="#C31162"/>
</linearGradient>
<linearGradient id="paint3_linear_262_143" x1="5.79424" y1="1.27546" x2="13.9788" y2="9.43867" gradientUnits="userSpaceOnUse">
<stop stop-color="#32A071"/>
<stop offset="0.0685" stop-color="#2DA771"/>
<stop offset="0.4762" stop-color="#15CF74"/>
<stop offset="0.8009" stop-color="#06E775"/>
<stop offset="1" stop-color="#00F076"/>
</linearGradient>
</defs>
</svg>
