<svg fill="none" height="65" viewBox="0 0 205 65" width="205" xmlns="http://www.w3.org/2000/svg" xmlns:xlink="http://www.w3.org/1999/xlink"><filter id="a" color-interpolation-filters="sRGB" filterUnits="userSpaceOnUse" height="39.1184" width="35.0253" x="15" y="13"><feFlood flood-opacity="0" result="BackgroundImageFix"/><feBlend in="SourceGraphic" in2="BackgroundImageFix" mode="normal" result="shape"/><feColorMatrix in="SourceAlpha" result="hardAlpha" type="matrix" values="0 0 0 0 0 0 0 0 0 0 0 0 0 0 0 0 0 0 127 0"/><feOffset dy="-.15"/><feComposite in2="hardAlpha" k2="-1" k3="1" operator="arithmetic"/><feColorMatrix type="matrix" values="0 0 0 0 0 0 0 0 0 0 0 0 0 0 0 0 0 0 0.12 0"/><feBlend in2="shape" mode="normal" result="effect1_innerShadow_249_144"/><feColorMatrix in="SourceAlpha" result="hardAlpha" type="matrix" values="0 0 0 0 0 0 0 0 0 0 0 0 0 0 0 0 0 0 127 0"/><feOffset dy=".15"/><feComposite in2="hardAlpha" k2="-1" k3="1" operator="arithmetic"/><feColorMatrix type="matrix" values="0 0 0 0 1 0 0 0 0 1 0 0 0 0 1 0 0 0 0.25 0"/><feBlend in2="effect1_innerShadow_249_144" mode="normal" result="effect2_innerShadow_249_144"/></filter><filter id="b" color-interpolation-filters="sRGB" filterUnits="userSpaceOnUse" height="19.5596" width="25.3113" x="15.7023" y="32.5588"><feFlood flood-opacity="0" result="BackgroundImageFix"/><feBlend in="SourceGraphic" in2="BackgroundImageFix" mode="normal" result="shape"/><feColorMatrix in="SourceAlpha" result="hardAlpha" type="matrix" values="0 0 0 0 0 0 0 0 0 0 0 0 0 0 0 0 0 0 127 0"/><feOffset dy="-.15"/><feComposite in2="hardAlpha" k2="-1" k3="1" operator="arithmetic"/><feColorMatrix type="matrix" values="0 0 0 0 0 0 0 0 0 0 0 0 0 0 0 0 0 0 0.08 0"/><feBlend in2="shape" mode="normal" result="effect1_innerShadow_249_144"/></filter><linearGradient id="c" gradientUnits="userSpaceOnUse" x1="32.9418" x2="7.41839" y1="15.3849" y2="40.8418"><stop offset="0" stop-color="#00a0ff"/><stop offset=".0066" stop-color="#00a1ff"/><stop offset=".2601" stop-color="#00beff"/><stop offset=".5122" stop-color="#00d2ff"/><stop offset=".7604" stop-color="#00dfff"/><stop offset="1" stop-color="#00e3ff"/></linearGradient><linearGradient id="d" gradientUnits="userSpaceOnUse" x1="51.1945" x2="14.4913" y1="32.5587" y2="32.5587"><stop offset="0" stop-color="#ffe000"/><stop offset=".4087" stop-color="#ffbd00"/><stop offset=".7754" stop-color="#ffa500"/><stop offset="1" stop-color="#ff9c00"/></linearGradient><linearGradient id="e" gradientUnits="userSpaceOnUse" x1="37.534" x2="2.92102" y1="36.0476" y2="70.5703"><stop offset="0" stop-color="#ff3a44"/><stop offset="1" stop-color="#c31162"/></linearGradient><linearGradient id="f" gradientUnits="userSpaceOnUse" x1="10.9413" x2="26.397" y1="2.40836" y2="17.8237"><stop offset="0" stop-color="#32a071"/><stop offset=".0685" stop-color="#2da771"/><stop offset=".4762" stop-color="#15cf74"/><stop offset=".8009" stop-color="#06e775"/><stop offset="1" stop-color="#00f076"/></linearGradient><rect fill="#000" height="65" rx="15" width="205"/><path d="m101.099 27.1543c-3.5674 0-6.4753 2.7208-6.4753 6.4683 0 3.7246 2.9079 6.4683 6.4753 6.4683 3.57 0 6.478-2.7437 6.478-6.4683-.002-3.7475-2.91-6.4683-6.478-6.4683zm0 10.3906c-1.9549 0-3.6402-1.6167-3.6402-3.9208 0-2.3285 1.6868-3.9208 3.6402-3.9208 1.956 0 3.641 1.5923 3.641 3.9208 0 2.3026-1.685 3.9208-3.641 3.9208zm-14.1282-10.3906c-3.5678 0-6.4757 2.7208-6.4757 6.4683 0 3.7246 2.9079 6.4683 6.4757 6.4683 3.5693 0 6.4773-2.7437 6.4773-6.4683 0-3.7475-2.908-6.4683-6.4773-6.4683zm0 10.3906c-1.9553 0-3.6406-1.6167-3.6406-3.9208 0-2.3285 1.6868-3.9208 3.6406-3.9208 1.9553 0 3.6406 1.5923 3.6406 3.9208.0016 2.3026-1.6853 3.9208-3.6406 3.9208zm-16.8044-8.4044v2.7437h6.5501c-.1957 1.5437-.7084 2.6707-1.4912 3.4539-.9526.9552-2.4437 2.0091-5.0589 2.0091-4.032 0-7.1841-3.2592-7.1841-7.3017 0-4.0426 3.1521-7.3018 7.1841-7.3018 2.1753 0 3.7635.8578 4.9361 1.9604l1.931-1.9361c-1.6383-1.568-3.812-2.768-6.8671-2.768-5.5231 0-10.1664 4.5079-10.1664 10.0455 0 5.5375 4.6433 10.0454 10.1664 10.0454 2.9807 0 5.2303-.981 6.9884-2.8182 1.8082-1.8129 2.371-4.3619 2.371-6.4197 0-.6357-.0485-1.2243-.1471-1.714h-9.2123zm68.7286 2.1308c-.537-1.4449-2.175-4.117-5.523-4.117-3.324 0-6.086 2.622-6.086 6.4683 0 3.6258 2.738 6.4683 6.403 6.4683 2.956 0 4.667-1.8129 5.377-2.8669l-2.199-1.4707c-.733 1.0784-1.735 1.7886-3.178 1.7886-1.441 0-2.468-.6616-3.128-1.9604l8.627-3.5771zm-8.798 2.1566c-.073-2.5003 1.931-3.7733 3.373-3.7733 1.125 0 2.077.5642 2.396 1.3718zm-7.013 6.2721h2.834v-19.0126h-2.834zm-4.645-11.0994h-.097c-.635-.7604-1.858-1.4463-3.396-1.4463-3.227 0-6.183 2.8425-6.183 6.4941 0 3.6258 2.956 6.444 6.183 6.444 1.54 0 2.761-.6859 3.396-1.4691h.097v.9307c0 2.4745-1.319 3.7977-3.445 3.7977-1.735 0-2.81-1.2487-3.25-2.3026l-2.468 1.0296c.708 1.714 2.589 3.822 5.718 3.822 3.324 0 6.135-1.9604 6.135-6.739v-11.6135h-2.688v1.0524zm-3.249 8.9443c-1.955 0-3.592-1.6425-3.592-3.8965 0-2.2798 1.637-3.9451 3.592-3.9451 1.93 0 3.445 1.6653 3.445 3.9451 0 2.254-1.515 3.8965-3.445 3.8965zm36.984-16.8575h-6.782v19.0126h2.829v-7.2029h3.952c3.137 0 6.222-2.2767 6.222-5.9041 0-3.6273-3.084-5.9056-6.221-5.9056zm.073 9.1634h-4.026v-6.517h4.026c2.116 0 3.317 1.7566 3.317 3.2592 0 1.4723-1.201 3.2578-3.317 3.2578zm17.493-2.73c-2.049 0-4.171.9049-5.05 2.911l2.512 1.0509c.537-1.0509 1.538-1.3947 2.587-1.3947 1.463 0 2.952.8806 2.976 2.4456v.1962c-.513-.2935-1.611-.733-2.952-.733-2.708 0-5.466 1.492-5.466 4.2797 0 2.5445 2.221 4.1825 4.709 4.1825 1.902 0 2.952-.8563 3.61-1.8601h.097v1.4677h2.734v-7.2896c.001-3.3733-2.514-5.2562-5.757-5.2562zm-.343 10.4196c-.925 0-2.219-.4654-2.219-1.6152 0-1.4676 1.611-2.0304 3.002-2.0304 1.242 0 1.829.2692 2.585.6358-.22 1.7627-1.733 3.0098-3.368 3.0098zm16.054-10.0044-3.245 8.2432h-.097l-3.368-8.2432h-3.049l5.05 11.5207-2.879 6.409h2.952l7.783-17.9297zm-25.494 12.164h2.829v-19.0126h-2.829z" fill="#fff"/><g filter="url(#a)"><path d="m15.7023 13.6039c-.4414.4685-.7023 1.1955-.7023 2.1369v33.6359c0 .943.2609 1.6684.7023 2.1369l.1123.1095 18.7931-18.8423v-.222-.2221l-18.7931-18.8438z" fill="url(#c)"/><path d="m40.8711 39.0636-6.2634-6.2828v-.2221-.222l6.2649-6.2813.1411.0806 7.4223 4.2281c2.1191 1.2076 2.1191 3.1832 0 4.3923l-7.4223 4.2281z" fill="url(#d)"/><g filter="url(#b)"><path d="m41.0137 38.9831-6.4075-6.4243-18.9039 18.9548c.6978.7422 1.8522.8335 3.1522.0943z" fill="url(#e)"/></g><path d="m41.0137 26.1345-22.1592-12.6234c-1.3-.7406-2.4544-.6479-3.1522.0943l18.9054 18.9548z" fill="url(#f)"/></g></svg>