<svg width="225" height="167" viewBox="0 0 225 167" fill="none" xmlns="http://www.w3.org/2000/svg">
<path d="M65.7031 166.516C105.937 166.516 130.234 135.891 130.313 83.1562C130.391 30.8125 105.781 0.812494 65.7031 0.812494C25.5469 0.812494 1.17188 30.7344 1.09375 83.1562C0.9375 135.734 25.3906 166.438 65.7031 166.516ZM65.7031 138.469C47.3437 138.469 35.4688 120.031 35.5469 83.1562C35.625 46.8281 47.4219 28.5469 65.7031 28.5469C83.9063 28.5469 95.7813 46.8281 95.7813 83.1562C95.8594 120.031 83.9844 138.469 65.7031 138.469ZM224.043 3H192.246L152.637 28.0781V58.0781L189.277 35.1094H190.215V163H224.043V3Z" fill="url(#paint0_linear_20_2027)" fill-opacity="0.08"/>
<defs>
<linearGradient id="paint0_linear_20_2027" x1="142.5" y1="-12" x2="142.5" y2="175.5" gradientUnits="userSpaceOnUse">
<stop stop-color="#10A6C9"/>
<stop offset="1" stop-color="#09364C" stop-opacity="0"/>
</linearGradient>
</defs>
</svg>
