<svg width="874" height="1208" viewBox="0 0 874 1208" fill="none" xmlns="http://www.w3.org/2000/svg">
<path d="M251.102 894.788L254.444 892.528C121.571 695.446 94.8415 546.143 94.5917 544.658L90.617 545.341C90.8469 546.839 117.754 696.984 251.102 894.788Z" fill="url(#paint0_linear_30_548)"/>
<path d="M69.0468 501.056C69.9582 526.554 83.2571 546.346 92.5778 545.003C101.899 543.66 109.854 519.959 102.804 496.239C95.4325 471.435 79.2732 452.293 79.2732 452.293C79.2732 452.293 68.1257 475.202 69.0468 501.056Z" fill="url(#paint1_linear_30_548)"/>
<path d="M57.7707 602.147C78.8263 616.506 102.679 617.518 107.114 609.207C111.549 600.897 97.1696 580.451 73.8608 572.094C49.5182 563.343 24.5179 565.034 24.5179 565.034C24.5179 565.034 36.3935 587.578 57.7707 602.147Z" fill="url(#paint2_linear_30_548)"/>
<path d="M148.342 573.612C139.288 597.435 120.311 611.911 111.914 607.648C103.517 603.384 103.625 578.37 117.945 558.16C132.906 537.052 154.374 524.131 154.374 524.131C154.374 524.131 157.534 549.432 148.342 573.612Z" fill="url(#paint3_linear_30_548)"/>
<path d="M87.0325 684.63C109.078 697.444 132.927 696.694 136.761 688.092C140.595 679.49 124.739 660.111 100.893 653.473C75.9769 646.514 51.1622 650.004 51.1622 650.004C51.1622 650.004 64.653 671.647 87.0325 684.63Z" fill="url(#paint4_linear_30_548)"/>
<path d="M175.262 649.593C167.965 674.006 150.089 689.826 141.384 686.191C132.68 682.556 130.992 657.593 143.807 636.397C157.189 614.254 177.685 599.8 177.685 599.8C177.685 599.8 182.662 624.809 175.262 649.593Z" fill="url(#paint5_linear_30_548)"/>
<path d="M122.632 764.151C145.634 775.149 169.333 772.504 172.474 763.613C175.614 754.721 158.247 736.721 133.943 731.985C108.555 727.048 84.1011 732.524 84.1011 732.524C84.1011 732.524 99.2796 753.013 122.632 764.151Z" fill="url(#paint6_linear_30_548)"/>
<path d="M207.799 722.172C202.479 747.093 185.935 764.303 176.959 761.373C167.983 758.442 164.303 733.702 175.372 711.547C186.941 688.407 206.213 672.353 206.213 672.353C206.213 672.353 213.186 696.835 207.799 722.172Z" fill="url(#paint7_linear_30_548)"/>
<path d="M161.841 837.15C185.206 847.318 208.829 843.866 211.641 834.883C214.453 825.9 196.503 808.517 172.031 804.614C146.477 800.54 122.233 806.888 122.233 806.888C122.233 806.888 138.123 826.828 161.841 837.15Z" fill="url(#paint8_linear_30_548)"/>
<path d="M245.458 792.21C241.011 817.302 225.078 835.074 216.036 832.45C206.994 829.826 202.419 805.24 212.715 782.706C223.47 759.176 242.146 742.471 242.146 742.471C242.146 742.471 250.004 766.731 245.458 792.21Z" fill="url(#paint9_linear_30_548)"/>
<path d="M484.816 696.448L480.844 693.736C640.282 459.435 672.918 281.557 673.223 279.787L677.959 280.621C677.677 282.407 644.824 461.288 484.816 696.448Z" fill="url(#paint10_linear_30_548)"/>
<path d="M703.904 227.931C702.687 258.328 686.729 281.857 675.622 280.208C664.516 278.559 655.152 250.26 663.68 222.014C672.596 192.477 691.962 169.737 691.962 169.737C691.962 169.737 705.135 197.11 703.904 227.931Z" fill="url(#paint11_linear_30_548)"/>
<path d="M716.83 348.521C691.652 365.533 663.207 366.616 657.962 356.685C652.717 346.754 669.966 322.45 697.8 312.605C726.869 302.296 756.669 304.44 756.669 304.44C756.669 304.44 742.393 331.259 716.83 348.521Z" fill="url(#paint12_linear_30_548)"/>
<path d="M608.987 314.032C619.66 342.483 642.212 359.842 652.246 354.801C662.28 349.761 662.28 319.936 645.309 295.765C627.579 270.521 602.049 255.005 602.049 255.005C602.049 255.005 598.151 285.155 608.987 314.032Z" fill="url(#paint13_linear_30_548)"/>
<path d="M681.517 446.715C655.166 461.881 626.735 460.864 622.208 450.588C617.68 440.312 636.685 417.287 665.152 409.496C694.895 401.326 724.464 405.615 724.464 405.615C724.464 405.615 708.267 431.351 681.517 446.715Z" fill="url(#paint14_linear_30_548)"/>
<path d="M576.501 404.488C585.075 433.633 606.308 452.587 616.705 448.298C627.102 444.008 629.243 414.254 614.071 388.916C598.231 362.446 573.867 345.106 573.867 345.106C573.867 345.106 567.804 374.899 576.501 404.488Z" fill="url(#paint15_linear_30_548)"/>
<path d="M638.664 541.347C611.182 554.342 582.938 551.067 579.24 540.449C575.541 529.831 596.34 508.459 625.342 502.937C655.638 497.181 684.767 503.835 684.767 503.835C684.767 503.835 666.564 528.187 638.664 541.347Z" fill="url(#paint16_linear_30_548)"/>
<path d="M537.334 490.858C543.549 520.599 563.186 541.204 573.903 537.755C584.62 534.307 589.135 504.828 576.052 478.355C562.376 450.706 539.48 431.466 539.48 431.466C539.48 431.466 531.04 460.621 537.334 490.858Z" fill="url(#paint17_linear_30_548)"/>
<path d="M591.539 628.184C563.629 640.187 535.48 635.95 532.174 625.225C528.867 614.5 550.359 593.866 579.556 589.338C610.046 584.612 638.92 592.305 638.92 592.305C638.92 592.305 619.872 615.998 591.539 628.184Z" fill="url(#paint18_linear_30_548)"/>
<path d="M492.073 574.171C497.246 604.112 516.152 625.384 526.946 622.301C537.741 619.219 543.322 589.928 531.161 563.008C518.458 534.898 496.276 514.884 496.276 514.884C496.276 514.884 486.783 543.77 492.073 574.171Z" fill="url(#paint19_linear_30_548)"/>
<g clip-path="url(#clip0_30_548)">
<g filter="url(#filter0_f_30_548)">
<path d="M489 1198L189 898H489V1198Z" fill="url(#paint20_linear_30_548)"/>
</g>
<g filter="url(#filter1_f_30_548)">
<path d="M864 386L564 86V386H864Z" fill="url(#paint21_linear_30_548)"/>
</g>
<g filter="url(#filter2_dd_30_548)">
<path d="M530 70H223C195.386 70 173 92.3858 173 120V864C173 891.614 195.386 914 223 914H530C557.614 914 580 891.614 580 864V120C580 92.3858 557.614 70 530 70Z" fill="url(#paint22_linear_30_548)"/>
</g>
<path d="M528 86H225C205.118 86 189 102.118 189 122V862C189 881.882 205.118 898 225 898H528C547.882 898 564 881.882 564 862V122C564 102.118 547.882 86 528 86Z" fill="#023047"/>
<path d="M507 92H247C219.386 92 197 114.386 197 142V842C197 869.614 219.386 892 247 892H507C534.614 892 557 869.614 557 842V142C557 114.386 534.614 92 507 92Z" fill="#023047"/>
<path d="M281.572 491.983C245.666 491.983 230.435 470.94 236.181 444.987C241.927 419.034 260.598 415.652 262.394 403.615C264.191 391.578 246.595 351.713 273.526 334.79C300.457 317.867 317.984 346.415 338.877 342.312C356.113 338.927 367.989 303.078 398.512 309.849C429.036 316.62 420.385 341.935 437.981 349.083C455.577 356.231 471.823 342.059 488.264 358.484C504.063 374.28 490.127 393.591 502.985 408.13C525.609 433.705 529.198 491.983 475.336 491.983H281.572Z" fill="#043B57"/>
<path d="M441.5 879H312.5C311.119 879 310 880.119 310 881.5C310 882.881 311.119 884 312.5 884H441.5C442.881 884 444 882.881 444 881.5C444 880.119 442.881 879 441.5 879Z" fill="black"/>
<path d="M427 762H327C318.716 762 312 768.716 312 777V801C312 809.284 318.716 816 327 816H427C435.284 816 442 809.284 442 801V777C442 768.716 435.284 762 427 762Z" fill="#219EBC"/>
<path d="M358.404 795.12V786.302H358.58L365.084 795.12H367.525V781.028H364.703V789.808H364.527L358.043 781.028H355.582V795.12H358.404ZM374.918 786.292C376.246 786.292 377.106 787.181 377.164 788.606H372.574C372.672 787.21 373.6 786.292 374.918 786.292ZM377.223 792.054C376.92 792.767 376.149 793.167 375.025 793.167C373.541 793.167 372.604 792.171 372.565 790.569V790.423H379.957V789.554C379.957 786.136 378.082 784.114 374.908 784.114C371.705 784.114 369.732 786.282 369.732 789.788C369.732 793.284 371.666 795.354 374.947 795.354C377.584 795.354 379.44 794.085 379.869 792.054H377.223ZM385.846 791.604L387.848 795.12H391.012L387.604 789.671L390.983 784.349H387.877L385.973 787.884H385.797L383.893 784.349H380.631L384.03 789.798L380.651 795.12H383.668L385.67 791.604H385.846ZM393.454 781.79V784.456H391.774V786.692H393.454V792.21C393.454 794.31 394.489 795.159 397.106 795.159C397.653 795.159 398.18 795.101 398.532 795.032V792.864C398.258 792.894 398.063 792.903 397.692 792.903C396.725 792.903 396.295 792.474 396.295 791.536V786.692H398.532V784.456H396.295V781.79H393.454Z" fill="url(#paint23_linear_30_548)"/>
<path d="M371.728 282.599L380.091 272.306C377.768 270.698 374.864 269.733 371.728 269.733C368.592 269.733 365.688 270.698 363.365 272.306L371.728 282.599ZM371.728 244C362.32 244 353.631 246.873 346.639 251.72L350.82 256.866C356.628 252.835 363.876 250.433 371.728 250.433C379.58 250.433 386.828 252.835 392.636 256.866L396.818 251.72C389.825 246.873 381.137 244 371.728 244ZM371.728 256.866C365.456 256.866 359.671 258.775 355.002 262.013L359.183 267.16C362.668 264.736 367.012 263.3 371.728 263.3C376.444 263.3 380.788 264.736 384.273 267.16L388.454 262.013C383.785 258.775 378 256.866 371.728 256.866Z" fill="#219EBC"/>
<path d="M392.347 379.924C392.347 379.924 381.713 401.219 370.91 415.917C366.612 421.769 362.288 426.573 358.596 428.577C354.983 430.538 351.924 433.58 349.393 436.961C342.84 445.703 339.813 456.647 339.813 456.647L312.19 414.817C312.19 414.817 313.133 373.928 316.45 367.089C321.283 357.121 323.618 336.982 325.475 332.973C326.854 329.999 330.788 314.635 331.164 313.506C331.329 313.02 332.637 312.274 334.337 312.275C335.701 312.275 338.018 313.595 338.601 316.308C341.556 330.016 338 339.059 338.046 339.46C339.088 349.996 335.956 357.818 338.157 359.889C338.238 359.964 338.39 359.929 338.601 359.791C342.41 357.345 366.044 322.854 368.955 322.109C372.023 321.324 392.347 379.924 392.347 379.924Z" fill="#FFB27D"/>
<path d="M348.123 448.368C348.123 448.368 347.747 466.956 346.669 491.992H277C292.921 457.996 306.767 429.384 306.767 429.384C306.767 429.384 346.439 430.597 348.123 448.368Z" fill="#219EBC"/>
<path d="M416.503 307.855L407.951 320.407L399.557 332.725C399.045 333.343 398.453 333.558 397.812 333.496C395.797 333.305 393.306 330.397 391.364 328.787L391.167 328.625C389.936 327.6 389.16 326.129 389.009 324.533C388.859 322.938 389.345 321.347 390.362 320.11L403.191 304.586L406.997 299.982C408.021 298.75 409.49 297.974 411.084 297.824C412.678 297.673 414.267 298.159 415.503 299.177L415.701 299.34C416.931 300.365 417.706 301.836 417.856 303.432C418.006 305.027 417.52 306.617 416.503 307.855Z" fill="#FFB27D"/>
<path d="M407.943 320.406L399.549 332.725C399.037 333.343 398.445 333.558 397.804 333.496L403.184 304.59C403.196 304.748 404.11 317.719 407.943 320.406Z" fill="#EFA26F"/>
<path d="M370.91 415.917C366.612 421.768 362.288 426.572 358.596 428.577C354.983 430.538 351.924 433.58 349.393 436.96C346.482 435.602 343.163 434.009 339.92 432.43C335.97 430.509 335.818 424.894 339.688 422.814C339.725 422.794 339.762 422.773 339.799 422.752C343.424 420.676 347.138 413.344 347.138 413.344L370.91 415.917Z" fill="#EFA26F"/>
<path d="M330.972 314.142L328.734 323.187C328.734 323.187 330.691 323.988 331.947 323.366C333.203 322.745 334.228 314.629 330.972 314.142Z" fill="#FFC197"/>
<path d="M395.337 297.074H347.209C342.456 297.074 338.602 300.931 338.602 305.689V411.577C338.602 416.335 342.456 420.192 347.209 420.192H395.337C400.09 420.192 403.943 416.335 403.943 411.577V305.689C403.943 300.931 400.09 297.074 395.337 297.074Z" fill="#286F80"/>
<path d="M400.705 306.504V409.937C400.705 413.446 397.857 416.316 394.374 416.316H348.167C344.688 416.316 341.836 413.446 341.836 409.937V306.504C341.836 302.995 344.682 300.125 348.167 300.125H394.378C397.857 300.125 400.705 303 400.705 306.504Z" fill="#C0D8FB"/>
<path d="M394.378 300.125L348.739 416.316H348.167C344.688 416.316 341.836 413.446 341.836 409.937V306.504C341.836 302.995 344.682 300.125 348.167 300.125H394.378Z" fill="#CBE1FD"/>
<path d="M380.931 297.796H361.616C360.036 297.796 358.756 299.077 358.756 300.659V301.11C358.756 302.691 360.036 303.973 361.616 303.973H380.931C382.51 303.973 383.791 302.691 383.791 301.11V300.659C383.791 299.077 382.51 297.796 380.931 297.796Z" fill="#2B478B"/>
<path d="M412.239 355.252L410.964 355.737L402.386 359C402.187 359.077 401.984 359.141 401.777 359.194C400.385 359.551 398.91 359.384 397.632 358.723C396.355 358.063 395.365 356.955 394.85 355.612L394.725 355.278C394.179 353.828 394.229 352.221 394.863 350.807C395.497 349.393 396.665 348.288 398.11 347.734L406.107 344.693L406.688 344.471L407.964 343.985C409.414 343.438 411.022 343.488 412.435 344.125C413.848 344.762 414.951 345.933 415.503 347.382L415.63 347.716C416.173 349.166 416.121 350.772 415.486 352.184C414.851 353.595 413.684 354.699 412.239 355.252Z" fill="#FFB27D"/>
<path d="M405.273 355.453C403.842 355.996 401.25 356.959 399.864 357.159C399.472 357.215 398.753 357.001 398.074 356.263C397.67 355.819 397.284 355.189 396.996 354.315C396.856 353.912 396.758 353.496 396.703 353.072C396.648 352.58 396.665 352.082 396.75 351.594C396.794 351.366 396.891 351.152 397.033 350.968C397.175 350.785 397.358 350.638 397.568 350.539C397.568 350.539 397.568 350.539 397.575 350.539C399.048 349.835 401.036 348.976 402.777 348.498C403.981 348.164 405.199 348.697 405.58 349.752L405.76 350.244L406.681 352.768C407.062 353.813 406.442 355.011 405.273 355.453Z" fill="#FFD3B6"/>
<path d="M405.273 355.453C403.842 355.996 401.25 356.959 399.864 357.159C399.472 357.215 398.753 357.001 398.074 356.263C398.003 356.094 397.937 355.917 397.875 355.727C397.734 355.324 397.635 354.908 397.581 354.484C397.527 353.992 397.543 353.494 397.628 353.006C397.672 352.778 397.769 352.564 397.912 352.381C398.054 352.198 398.237 352.051 398.447 351.952C398.447 351.952 398.447 351.952 398.453 351.952C399.927 351.247 401.913 350.389 403.656 349.909C404.01 349.803 404.384 349.777 404.749 349.835C405.114 349.893 405.462 350.032 405.766 350.243L406.687 352.767C407.062 353.813 406.442 355.011 405.273 355.453Z" fill="#FFC197"/>
<path d="M408.347 367.327L401.731 369.13C400.762 369.391 399.729 369.257 398.858 368.759C397.986 368.26 397.348 367.436 397.081 366.468L396.877 365.719C396.617 364.748 396.751 363.713 397.25 362.841C397.75 361.968 398.574 361.33 399.543 361.064L406.158 359.262C407.128 359.001 408.161 359.135 409.033 359.635C409.904 360.135 410.542 360.96 410.807 361.93L411.01 362.679C411.269 363.649 411.135 364.682 410.636 365.553C410.137 366.423 409.314 367.061 408.347 367.327Z" fill="#FFB27D"/>
<path d="M404.769 367.003C403.554 367.328 401.359 367.9 400.207 367.964C399.788 367.987 398.949 367.63 398.403 366.531C398.116 365.933 397.951 365.285 397.917 364.623C397.908 364.24 397.958 363.858 398.064 363.49C398.121 363.314 398.218 363.154 398.348 363.022C398.477 362.891 398.636 362.792 398.812 362.734H398.818C400.079 362.289 401.772 361.757 403.237 361.5C404.247 361.323 405.207 361.81 405.444 362.645L405.615 363.241L406.125 365.032C406.36 365.857 405.762 366.738 404.769 367.003Z" fill="#FFD3B6"/>
<path d="M404.77 367.003C403.555 367.328 401.359 367.9 400.207 367.964C399.788 367.987 398.95 367.63 398.403 366.531C398.325 366.232 398.28 365.925 398.269 365.617C398.261 365.234 398.311 364.852 398.417 364.484C398.473 364.308 398.57 364.147 398.7 364.016C398.83 363.884 398.99 363.785 399.165 363.727C400.426 363.282 402.12 362.748 403.583 362.494C404.421 362.347 405.224 362.656 405.609 363.24L406.119 365.031C406.36 365.857 405.763 366.739 404.77 367.003Z" fill="#FFC197"/>
<path d="M299.985 443.487C299.985 443.487 313.6 456.54 322.778 461.579L329.728 456.645V463.924C329.728 463.924 343.389 466.343 347.706 463.924V444.076L309.321 424.813L299.985 443.487Z" fill="#0E758D"/>
<path d="M350.605 462.345C345.317 463.431 333.921 459.273 333.921 459.273L335.756 441.5L322.872 456.263C316.318 453.818 306.067 447.452 299.977 443.487C296.945 441.512 294.943 440.135 294.943 440.135C303.538 426.291 312.182 413.341 312.182 413.341C314.72 418.423 320.726 422.835 327.237 426.365C338.056 432.23 350.268 435.657 350.268 435.657C350.271 446.222 350.605 462.345 350.605 462.345Z" fill="#DCEAFF"/>
<path d="M412.03 342.566L411.888 342.615L403.216 344.839C399.403 345.82 395.459 343.755 394.452 340.25L393.937 338.465C392.97 335.1 395.048 331.581 398.592 330.44L401.455 329.704L407.264 328.211C411.077 327.23 415.02 329.296 416.026 332.8L416.543 334.596C417.496 337.909 415.486 341.377 412.03 342.566Z" fill="#FFB27D"/>
<path d="M408.062 340.143L403.841 342.044H403.814C403.647 342.09 403.476 342.128 403.304 342.155C403.235 342.166 403.162 342.174 403.091 342.182C403.062 342.184 403.032 342.184 403.002 342.182C402.892 342.178 402.785 342.147 402.69 342.092C402.595 342.036 402.515 341.958 402.457 341.864C402.4 341.771 402.366 341.664 402.36 341.554C402.353 341.444 402.374 341.334 402.42 341.234C402.833 340.339 402.918 339.327 402.659 338.375L402.558 338.007C402.559 338.003 402.559 337.999 402.558 337.996L402.232 336.797C401.983 335.877 401.448 335.059 400.704 334.463C400.618 334.393 400.529 334.326 400.438 334.264C399.605 333.685 399.817 332.374 400.792 332.107L400.819 332.099L405.443 331.399C406.585 331.088 407.686 331.969 407.997 333.113L408.368 334.477L409.159 337.385C409.47 338.537 409.199 339.832 408.062 340.143Z" fill="#FFD3B6"/>
<path d="M408.062 340.143L403.841 342.044H403.814C403.716 342.063 403.407 342.115 403.002 342.177C402.893 342.173 402.785 342.142 402.69 342.087C402.595 342.032 402.515 341.954 402.457 341.86C402.4 341.766 402.366 341.659 402.36 341.55C402.353 341.44 402.374 341.33 402.421 341.23C402.834 340.335 402.918 339.322 402.659 338.37L402.558 338.002C402.559 337.999 402.559 337.995 402.558 337.991L402.232 336.797C401.983 335.877 401.448 335.059 400.704 334.463C400.863 334.23 401.1 334.063 401.371 333.99L401.398 333.982L406.021 333.283C406.984 333.021 407.915 333.604 408.373 334.477L409.163 337.385C409.47 338.537 409.199 339.832 408.062 340.143Z" fill="#FFC197"/>
<path d="M338.601 387.716C338.601 387.716 336.713 371.185 334.965 367.962C333.217 364.739 331.744 358.282 334.427 353.486C337.111 348.69 338.04 339.465 338.04 339.465C339.082 350.002 335.95 357.823 338.151 359.894C338.232 359.97 338.385 359.934 338.596 359.796L338.601 387.716Z" fill="#EFA26F"/>
<path d="M470.961 491.035H419.843C417.392 489.4 404.662 480.759 399.399 474.318C398.288 472.952 394.2 461.188 391.066 451.637C389.107 445.666 387.51 440.565 387.247 439.394C387.154 438.986 387.091 438.178 387.054 437.083V437.072C386.92 433.166 387.102 425.633 387.29 419.65V419.622V419.544C387.299 419.28 387.307 419.022 387.316 418.77V418.761C387.316 418.735 387.316 418.709 387.316 418.683C387.35 417.644 387.384 416.665 387.415 415.773C387.494 413.547 387.56 411.872 387.588 411.216L387.599 410.911C387.68 410.866 390.139 409.56 393.426 411.916C394.219 412.485 394.952 413.861 395.621 415.655C396.049 416.801 396.45 418.116 396.824 419.503C398.259 424.835 399.289 431.21 399.839 432.917C400.728 435.681 411.172 447.807 411.83 448.561C411.84 448.574 411.851 448.586 411.861 448.599V429.436L403.972 408.429L400.734 399.805L399.106 395.471C397.383 392.577 395.849 389.576 394.515 386.485C393.598 384.338 392.758 382.033 392.238 379.841C392.114 379.32 392.008 378.803 391.924 378.294C391.616 376.442 391.59 374.724 392.022 373.325C392.786 370.834 394.506 370.365 395.827 370.416C395.964 370.416 396.096 370.433 396.224 370.447C396.352 370.462 396.479 370.487 396.604 370.52C396.834 370.581 397.055 370.672 397.26 370.792C397.602 370.991 397.895 371.264 398.118 371.59C398.118 371.59 399.229 373.04 400.73 374.988C401.715 376.27 402.865 377.768 403.969 379.212C405.936 381.785 407.762 384.188 408.265 384.889C410.979 388.691 418.288 401.082 418.288 401.082L426.843 401.439C428.199 401.495 429.489 402.033 430.48 402.954C433.522 405.781 440.081 411.898 440.886 412.808C440.886 413.107 445.982 415.546 449.92 417.717C452.737 418.901 458.087 423.098 458.087 423.098C459.198 424.072 460.04 425.042 460.468 425.973C462.302 429.945 467.278 464.495 469.657 481.575C470.427 487.066 470.922 490.751 470.961 491.035Z" fill="#FFB27D"/>
<path d="M418.256 401.552C418.256 401.552 426.178 414.497 427.227 415.08C428.275 415.662 432.354 416.48 432.82 415.08C433.287 413.68 418.256 401.552 418.256 401.552Z" fill="#EFA26F"/>
<path d="M458.079 423.726L458.039 423.691C458.039 423.691 452.691 419.466 449.876 418.28C446.262 416.278 441.672 414.044 440.945 413.459C441.783 414.42 447.683 421.104 449.955 421.604C451.948 422.044 456.477 423.284 458.079 423.726Z" fill="#EFA26F"/>
<path d="M411.829 449.322V430.059C411.829 430.059 416.401 437.713 416.751 441.912C417.1 446.111 414.851 452.907 411.829 449.322Z" fill="#EFA26F"/>
<path d="M395.241 378.632C394.575 377.485 393.375 375.408 392.963 374.241C392.852 373.907 392.862 373.253 393.266 372.552C393.565 372.049 393.975 371.623 394.466 371.305C394.727 371.12 395.01 370.968 395.308 370.851C395.653 370.725 396.017 370.657 396.385 370.652C396.57 370.66 396.751 370.713 396.911 370.806C397.072 370.899 397.207 371.03 397.306 371.188C398.099 372.345 399.103 373.92 399.786 375.347C400.258 376.332 400.109 377.469 399.42 377.968L399.098 378.204L397.452 379.407C396.771 379.911 395.785 379.57 395.241 378.632Z" fill="#FFD3B6"/>
<path d="M395.241 378.632C394.575 377.485 393.375 375.408 392.963 374.241C392.852 373.907 392.862 373.254 393.266 372.552C393.625 372.257 394.026 372.016 394.456 371.837C394.801 371.711 395.165 371.644 395.533 371.638C395.718 371.646 395.899 371.699 396.059 371.792C396.22 371.886 396.355 372.017 396.454 372.174C397.248 373.331 398.252 374.907 398.934 376.332C399.237 376.964 399.285 377.656 399.098 378.203L397.452 379.406C396.771 379.911 395.785 379.571 395.241 378.632Z" fill="#FFC197"/>
<path d="M379.126 369.448H364.33C360.422 369.448 357.253 372.698 357.253 376.707V389.208C357.253 393.217 360.422 396.467 364.33 396.467H379.126C383.034 396.467 386.203 393.217 386.203 389.208V376.707C386.203 372.698 383.034 369.448 379.126 369.448Z" fill="white"/>
<path d="M350.75 306.595L350.091 307.069L349.425 306.601C349.499 306.495 349.598 306.409 349.713 306.349C349.827 306.289 349.955 306.258 350.084 306.257C350.213 306.257 350.34 306.287 350.456 306.346C350.571 306.405 350.67 306.49 350.746 306.595H350.75Z" fill="white"/>
<path d="M350.094 305.104C349.779 305.104 349.47 305.18 349.191 305.325C348.912 305.47 348.672 305.681 348.492 305.938L348.91 306.232C349.042 306.042 349.218 305.886 349.423 305.779C349.628 305.671 349.856 305.615 350.088 305.614C350.319 305.613 350.548 305.668 350.754 305.774C350.959 305.88 351.137 306.034 351.271 306.223L351.687 305.924C351.506 305.67 351.267 305.464 350.989 305.321C350.712 305.179 350.405 305.104 350.094 305.104Z" fill="white"/>
<path d="M350.094 302.913C349.429 302.913 348.773 303.073 348.183 303.38C347.593 303.687 347.086 304.131 346.704 304.676L347.122 304.97C347.456 304.494 347.899 304.106 348.414 303.837C348.929 303.569 349.5 303.427 350.081 303.425C350.661 303.423 351.234 303.56 351.75 303.825C352.267 304.09 352.713 304.475 353.05 304.947L353.465 304.648C353.081 304.111 352.576 303.673 351.989 303.371C351.403 303.07 350.753 302.912 350.094 302.913Z" fill="white"/>
<path d="M350.094 304.111C349.62 304.111 349.154 304.225 348.733 304.442C348.313 304.66 347.951 304.975 347.677 305.361L348.094 305.655C348.321 305.337 348.619 305.078 348.965 304.899C349.311 304.72 349.695 304.625 350.085 304.624C350.474 304.622 350.859 304.714 351.206 304.89C351.554 305.067 351.854 305.323 352.083 305.639L352.497 305.342C352.223 304.961 351.862 304.651 351.444 304.437C351.026 304.223 350.563 304.111 350.094 304.111Z" fill="white"/>
<path d="M445.233 484.09L429.969 492H419.807C417.357 490.356 404.632 481.667 399.37 475.19C398.26 473.817 394.174 461.988 391.04 452.383C391.457 453.658 400.21 472.319 402.703 474.441C405.195 476.562 418.281 488.911 421.895 488.783C425.396 488.662 444.034 484.369 445.189 484.103L445.233 484.09Z" fill="#EFA26F"/>
<path d="M476 492C475.195 492.483 420.916 492 420.916 492C423.676 490.916 434.235 486.878 445.181 484.106L445.233 484.094C454.634 481.714 464.312 480.271 469.567 482.435L469.605 482.492C469.605 482.492 476.805 491.518 476 492Z" fill="#D2E3FC"/>
<path d="M387.292 419.242C388.218 418.902 389.521 418.678 390.154 419.737C391.14 421.385 387.477 435.922 387.02 437.748L387.292 419.242Z" fill="#EFA26F"/>
<path d="M387.574 411.426L387.259 420.219C387.259 420.219 389.107 420.52 390.156 419.735C391.206 418.95 390.65 411.322 387.574 411.426Z" fill="#FFC197"/>
<path d="M350.606 462.344C345.318 463.431 333.921 459.273 333.921 459.273L335.756 441.5L322.872 456.263C316.318 453.817 306.067 447.451 299.977 443.487C315.584 441.783 327.237 426.365 327.237 426.365C338.056 432.231 350.268 435.658 350.268 435.658C350.271 446.222 350.606 462.344 350.606 462.344Z" fill="#CBE1FD"/>
<path d="M314.319 446.202C314.323 445.777 314.453 445.364 314.692 445.013C314.93 444.663 315.268 444.391 315.661 444.232C316.054 444.073 316.486 444.035 316.901 444.121C317.316 444.208 317.696 444.416 317.993 444.719C318.29 445.022 318.49 445.406 318.569 445.823C318.648 446.24 318.601 446.671 318.436 447.061C318.27 447.452 317.992 447.785 317.637 448.017C317.282 448.249 316.867 448.371 316.443 448.368C316.161 448.365 315.883 448.307 315.624 448.197C315.365 448.086 315.13 447.926 314.933 447.725C314.736 447.524 314.58 447.286 314.475 447.024C314.369 446.763 314.317 446.484 314.319 446.202Z" fill="#F99746"/>
<path d="M364.973 383.307L369.247 387.785C369.666 388.224 370.376 388.192 370.753 387.717L378.483 378" stroke="#1BC1E9" stroke-width="3" stroke-linecap="round"/>
<path d="M391.251 314.444H365.533C363.625 314.444 362.078 315.992 362.078 317.901V322.784C362.078 324.694 363.625 326.242 365.533 326.242H391.251C393.158 326.242 394.705 324.694 394.705 322.784V317.901C394.705 315.992 393.158 314.444 391.251 314.444Z" fill="#90D4F7"/>
<path d="M375.48 316.72H366.824C366.523 316.72 366.279 316.964 366.279 317.266V317.527C366.279 317.828 366.523 318.073 366.824 318.073H375.48C375.781 318.073 376.025 317.828 376.025 317.527V317.266C376.025 316.964 375.781 316.72 375.48 316.72Z" fill="white"/>
<path d="M375.584 321.536H366.719C366.601 321.536 366.488 321.489 366.405 321.405C366.321 321.322 366.274 321.209 366.274 321.091C366.274 320.973 366.321 320.86 366.405 320.776C366.488 320.693 366.601 320.646 366.719 320.646H375.584C375.702 320.646 375.815 320.693 375.898 320.776C375.982 320.86 376.029 320.973 376.029 321.091C376.029 321.209 375.982 321.322 375.898 321.405C375.815 321.489 375.702 321.536 375.584 321.536Z" fill="white"/>
<path d="M371.66 322.741H366.617C366.43 322.741 366.279 322.892 366.279 323.079V323.285C366.279 323.471 366.43 323.623 366.617 323.623H371.66C371.847 323.623 371.998 323.471 371.998 323.285V323.079C371.998 322.892 371.847 322.741 371.66 322.741Z" fill="white"/>
<path d="M381.94 322.741H373.789C373.556 322.741 373.366 322.931 373.366 323.165V323.199C373.366 323.433 373.556 323.623 373.789 323.623H381.94C382.173 323.623 382.363 323.433 382.363 323.199V323.165C382.363 322.931 382.173 322.741 381.94 322.741Z" fill="white"/>
<path d="M389.559 321.536H377.93C377.812 321.536 377.699 321.489 377.616 321.405C377.533 321.322 377.486 321.209 377.486 321.091C377.486 320.973 377.533 320.86 377.616 320.776C377.699 320.693 377.812 320.646 377.93 320.646H389.559C389.677 320.646 389.79 320.693 389.873 320.776C389.956 320.86 390.003 320.973 390.003 321.091C390.003 321.209 389.956 321.322 389.873 321.405C389.79 321.489 389.677 321.536 389.559 321.536Z" fill="white"/>
<path d="M383.916 316.72H377.7C377.442 316.72 377.233 316.929 377.233 317.188V317.605C377.233 317.863 377.442 318.073 377.7 318.073H383.916C384.174 318.073 384.383 317.863 384.383 317.605V317.188C384.383 316.929 384.174 316.72 383.916 316.72Z" fill="white"/>
<path d="M375.838 332.778H318.404C316.411 332.778 314.794 334.396 314.794 336.391V359.417C314.794 361.412 316.411 363.03 318.404 363.03H375.838C377.832 363.03 379.448 361.412 379.448 359.417V336.391C379.448 334.396 377.832 332.778 375.838 332.778Z" fill="#50A4CE"/>
<path d="M336.919 338.568H322.584C321.479 338.568 320.584 339.463 320.584 340.568V354.903C320.584 356.007 321.479 356.903 322.584 356.903H336.919C338.023 356.903 338.919 356.007 338.919 354.903V340.568C338.919 339.463 338.023 338.568 336.919 338.568Z" fill="white"/>
<path d="M356.699 340.375H346.058C345.687 340.375 345.387 340.676 345.387 341.046V341.367C345.387 341.738 345.687 342.039 346.058 342.039H356.699C357.07 342.039 357.37 341.738 357.37 341.367V341.046C357.37 340.676 357.07 340.375 356.699 340.375Z" fill="white"/>
<path d="M356.828 348.017H345.927C345.783 348.017 345.646 347.959 345.544 347.858C345.443 347.756 345.386 347.619 345.385 347.475C345.385 347.332 345.443 347.194 345.544 347.092C345.646 346.991 345.783 346.933 345.927 346.933H356.827C356.97 346.933 357.108 346.991 357.209 347.092C357.311 347.194 357.368 347.332 357.368 347.475C357.368 347.619 357.311 347.756 357.209 347.858C357.108 347.959 356.971 348.017 356.828 348.017Z" fill="white"/>
<path d="M352.003 349.499H345.801C345.572 349.499 345.387 349.685 345.387 349.914V350.169C345.387 350.398 345.572 350.584 345.801 350.584H352.003C352.232 350.584 352.418 350.398 352.418 350.169V349.914C352.418 349.685 352.232 349.499 352.003 349.499Z" fill="white"/>
<path d="M364.642 349.499H354.621C354.333 349.499 354.1 349.733 354.1 350.02V350.063C354.1 350.351 354.333 350.584 354.621 350.584H364.642C364.93 350.584 365.163 350.351 365.163 350.063V350.02C365.163 349.733 364.93 349.499 364.642 349.499Z" fill="white"/>
<path d="M374.005 348.017H359.713C359.57 348.017 359.432 347.96 359.331 347.858C359.229 347.756 359.172 347.619 359.171 347.475C359.172 347.332 359.229 347.194 359.331 347.092C359.432 346.991 359.57 346.933 359.713 346.933H374.005C374.148 346.933 374.286 346.991 374.387 347.092C374.489 347.194 374.546 347.332 374.546 347.475C374.546 347.619 374.488 347.756 374.387 347.858C374.285 347.959 374.148 348.017 374.005 348.017Z" fill="white"/>
<path d="M356.828 353.149H345.927C345.783 353.149 345.646 353.091 345.544 352.99C345.443 352.888 345.385 352.751 345.385 352.607C345.385 352.463 345.442 352.325 345.543 352.223C345.645 352.121 345.783 352.063 345.927 352.063H356.827C356.97 352.063 357.108 352.121 357.209 352.222C357.311 352.324 357.368 352.461 357.368 352.605C357.368 352.749 357.311 352.887 357.21 352.989C357.109 353.091 356.971 353.148 356.828 353.149Z" fill="white"/>
<path d="M374.005 353.149H359.713C359.57 353.149 359.432 353.091 359.331 352.99C359.229 352.888 359.172 352.751 359.171 352.607C359.171 352.463 359.228 352.325 359.33 352.223C359.432 352.121 359.569 352.063 359.713 352.063H374.005C374.148 352.063 374.286 352.121 374.387 352.222C374.489 352.324 374.546 352.461 374.546 352.605C374.546 352.749 374.489 352.887 374.388 352.989C374.286 353.091 374.148 353.149 374.005 353.149Z" fill="white"/>
<path d="M367.072 340.375H359.43C359.112 340.375 358.855 340.632 358.855 340.95V341.463C358.855 341.781 359.112 342.039 359.43 342.039H367.072C367.39 342.039 367.647 341.781 367.647 341.463V340.95C367.647 340.632 367.39 340.375 367.072 340.375Z" fill="white"/>
<path d="M357.184 314.444H349.604C348.499 314.444 347.604 315.339 347.604 316.444V324.024C347.604 325.128 348.499 326.024 349.604 326.024H357.184C358.288 326.024 359.184 325.128 359.184 324.024V316.444C359.184 315.339 358.288 314.444 357.184 314.444Z" fill="white"/>
<path d="M351.031 320.018L353.178 317.871C353.891 317.161 355.042 317.161 355.756 317.871C356.466 318.582 356.466 319.736 355.756 320.449L353.609 322.596C352.896 323.306 351.742 323.306 351.031 322.596C350.321 321.882 350.321 320.731 351.031 320.018ZM351.463 320.449C351.144 320.765 351.038 321.217 351.147 321.621L352.965 319.805L354.253 321.093L355.325 320.018C355.801 319.544 355.801 318.776 355.325 318.303C354.851 317.826 354.083 317.826 353.609 318.303L351.463 320.449Z" fill="#90D4F6"/>
<path d="M330.236 343.387L327.167 346.712C329.007 347.418 330.569 348.613 331.822 350.121L334.453 347.27C334.967 346.71 335.239 345.97 335.209 345.211C335.18 344.452 334.85 343.736 334.294 343.22C333.733 342.707 332.992 342.436 332.232 342.468C331.471 342.499 330.754 342.83 330.236 343.387Z" fill="#CCE9FF"/>
<g style="mix-blend-mode:multiply" opacity="0.49">
<g style="mix-blend-mode:multiply" opacity="0.49">
<path d="M332.217 346.374C332.122 347.179 331.425 347.674 330.841 347.865C329.462 348.219 327.708 348.712 327.293 349.953C326.806 351.443 326.014 352.655 324.617 353.388C324.665 353.439 324.715 353.49 324.768 353.538C325.328 354.051 326.069 354.321 326.829 354.289C327.59 354.258 328.307 353.927 328.825 353.369L334.454 347.269C334.968 346.709 335.24 345.968 335.21 345.21C335.18 344.451 334.85 343.736 334.294 343.22C334.084 343.026 333.846 342.866 333.588 342.744C332.844 343.825 332.373 345.071 332.217 346.374Z" fill="#D8DEE8"/>
</g>
</g>
<path d="M327.167 346.712L324.605 349.487C324.091 350.048 323.82 350.789 323.85 351.548C323.88 352.307 324.21 353.023 324.767 353.539C325.328 354.051 326.069 354.321 326.829 354.29C327.589 354.258 328.307 353.927 328.824 353.37L331.823 350.12C330.568 348.613 329.007 347.418 327.167 346.712Z" fill="#33C7EB"/>
<g style="mix-blend-mode:multiply" opacity="0.1">
<g style="mix-blend-mode:multiply" opacity="0.1">
<path d="M329.776 348.162C328.676 348.508 327.607 349.019 327.293 349.953C326.806 351.444 326.015 352.655 324.617 353.388C324.639 353.412 324.662 353.435 324.684 353.457C324.706 353.479 324.739 353.511 324.767 353.537C325.328 354.05 326.069 354.32 326.829 354.288C327.589 354.257 328.306 353.926 328.824 353.368L331.823 350.119C331.219 349.389 330.532 348.733 329.776 348.162Z" fill="#117E98"/>
</g>
</g>
<path d="M355.404 573V561.536H355.633L364.088 573H367.262V554.681H363.593V566.094H363.364L354.934 554.681H351.735V573H355.404ZM375.142 573V565.865H382.594V562.729H375.142V557.956H383.305V554.681H371.308V573H375.142ZM394.219 573.47C398.637 573.47 401.861 570.74 402.179 566.779H398.446C398.078 568.798 396.428 570.093 394.232 570.093C391.337 570.093 389.547 567.693 389.547 563.834C389.547 559.975 391.337 557.588 394.219 557.588C396.403 557.588 398.066 558.972 398.434 561.079H402.166C401.887 557.093 398.561 554.211 394.219 554.211C388.9 554.211 385.624 557.88 385.624 563.834C385.624 569.801 388.912 573.47 394.219 573.47ZM289.906 613.299C292.604 613.299 294.608 611.796 295.03 609.467H293.421C293.017 610.935 291.672 611.84 289.906 611.84C287.462 611.84 285.933 609.845 285.933 606.663C285.933 603.481 287.462 601.478 289.897 601.478C291.646 601.478 292.999 602.506 293.421 604.141H295.03C294.652 601.697 292.569 600.019 289.897 600.019C286.452 600.019 284.307 602.567 284.307 606.663C284.307 610.75 286.46 613.299 289.906 613.299ZM297.169 613H298.68V607.393C298.68 605.793 299.612 604.721 301.308 604.721C302.741 604.721 303.497 605.556 303.497 607.234V613H305.008V606.865C305.008 604.642 303.743 603.358 301.739 603.358C300.289 603.358 299.295 603.974 298.821 605.02H298.68V599.764H297.169V613ZM311.137 604.694C312.64 604.694 313.642 605.802 313.677 607.48H308.457C308.571 605.802 309.626 604.694 311.137 604.694ZM313.634 610.548C313.238 611.383 312.412 611.831 311.19 611.831C309.582 611.831 308.536 610.645 308.457 608.772V608.702H315.268V608.122C315.268 605.178 313.713 603.358 311.155 603.358C308.553 603.358 306.884 605.292 306.884 608.271C306.884 611.269 308.527 613.167 311.155 613.167C313.229 613.167 314.688 612.174 315.145 610.548H313.634ZM325.071 606.426C324.807 604.738 323.401 603.358 321.099 603.358C318.444 603.358 316.757 605.274 316.757 608.228C316.757 611.242 318.453 613.167 321.107 613.167C323.384 613.167 324.799 611.884 325.071 610.144H323.542C323.261 611.216 322.373 611.805 321.099 611.805C319.411 611.805 318.321 610.416 318.321 608.228C318.321 606.083 319.393 604.721 321.099 604.721C322.461 604.721 323.296 605.485 323.542 606.426H325.071ZM328.634 607.665H328.493V599.764H326.981V613H328.493V609.405L329.398 608.562L332.949 613H334.874L330.523 607.586L334.602 603.525H332.747L328.634 607.665ZM341.736 616.428C343.414 616.428 344.17 615.777 344.979 613.58L348.679 603.525H347.071L344.478 611.321H344.337L341.736 603.525H340.101L343.608 613.009L343.432 613.571C343.036 614.714 342.562 615.127 341.692 615.127C341.481 615.127 341.244 615.118 341.059 615.083V616.375C341.27 616.41 341.534 616.428 341.736 616.428ZM353.833 613.167C356.531 613.167 358.201 611.304 358.201 608.263C358.201 605.213 356.531 603.358 353.833 603.358C351.134 603.358 349.464 605.213 349.464 608.263C349.464 611.304 351.134 613.167 353.833 613.167ZM353.833 611.805C352.04 611.805 351.029 610.504 351.029 608.263C351.029 606.013 352.04 604.721 353.833 604.721C355.626 604.721 356.636 606.013 356.636 608.263C356.636 610.504 355.626 611.805 353.833 611.805ZM367.828 603.525H366.316V609.133C366.316 610.794 365.402 611.787 363.732 611.787C362.22 611.787 361.588 610.996 361.588 609.291V603.525H360.076V609.66C360.076 611.901 361.183 613.167 363.31 613.167C364.76 613.167 365.771 612.569 366.246 611.515H366.386V613H367.828V603.525ZM370.265 613H371.777V607.129C371.777 605.793 372.823 604.826 374.264 604.826C374.563 604.826 375.108 604.879 375.231 604.914V603.402C375.038 603.376 374.722 603.358 374.475 603.358C373.219 603.358 372.129 604.009 371.847 604.932H371.707V603.525H370.265V613ZM381.381 613H382.893V607.129C382.893 605.793 383.851 604.721 385.09 604.721C386.285 604.721 387.068 605.441 387.068 606.566V613H388.579V606.909C388.579 605.705 389.458 604.721 390.777 604.721C392.112 604.721 392.772 605.406 392.772 606.804V613H394.283V606.452C394.283 604.466 393.202 603.358 391.269 603.358C389.959 603.358 388.878 604.018 388.368 605.02H388.228C387.788 604.035 386.892 603.358 385.609 603.358C384.343 603.358 383.394 603.965 382.963 605.02H382.822V603.525H381.381V613ZM400.412 604.694C401.915 604.694 402.917 605.802 402.952 607.48H397.732C397.846 605.802 398.901 604.694 400.412 604.694ZM402.909 610.548C402.513 611.383 401.687 611.831 400.465 611.831C398.857 611.831 397.811 610.645 397.732 608.772V608.702H404.543V608.122C404.543 605.178 402.988 603.358 400.43 603.358C397.828 603.358 396.159 605.292 396.159 608.271C396.159 611.269 397.802 613.167 400.43 613.167C402.504 613.167 403.963 612.174 404.42 610.548H402.909ZM410.013 613.167C411.323 613.167 412.448 612.543 413.045 611.488H413.186V613H414.627V599.764H413.116V605.02H412.984C412.448 603.982 411.332 603.358 410.013 603.358C407.605 603.358 406.032 605.292 406.032 608.263C406.032 611.242 407.587 613.167 410.013 613.167ZM410.365 604.721C412.079 604.721 413.151 606.092 413.151 608.263C413.151 610.451 412.087 611.805 410.365 611.805C408.633 611.805 407.596 610.478 407.596 608.263C407.596 606.057 408.642 604.721 410.365 604.721ZM417.188 613H418.7V603.525H417.188V613ZM417.944 601.601C418.524 601.601 418.999 601.126 418.999 600.546C418.999 599.966 418.524 599.491 417.944 599.491C417.364 599.491 416.889 599.966 416.889 600.546C416.889 601.126 417.364 601.601 417.944 601.601ZM429.013 606.426C428.749 604.738 427.343 603.358 425.04 603.358C422.386 603.358 420.698 605.274 420.698 608.228C420.698 611.242 422.394 613.167 425.049 613.167C427.325 613.167 428.74 611.884 429.013 610.144H427.483C427.202 611.216 426.314 611.805 425.04 611.805C423.352 611.805 422.263 610.416 422.263 608.228C422.263 606.083 423.335 604.721 425.04 604.721C426.402 604.721 427.237 605.485 427.483 606.426H429.013ZM433.753 611.84C432.654 611.84 431.837 611.277 431.837 610.311C431.837 609.361 432.47 608.86 433.911 608.764L436.46 608.597V609.467C436.46 610.82 435.309 611.84 433.753 611.84ZM433.472 613.167C434.737 613.167 435.774 612.613 436.39 611.603H436.53V613H437.972V606.514C437.972 604.545 436.68 603.358 434.368 603.358C432.347 603.358 430.853 604.36 430.65 605.881H432.18C432.391 605.134 433.182 604.703 434.315 604.703C435.73 604.703 436.46 605.345 436.46 606.514V607.375L433.727 607.542C431.52 607.674 430.272 608.649 430.272 610.346C430.272 612.077 431.635 613.167 433.472 613.167ZM440.989 601.073V603.525H439.46V604.791H440.989V610.539C440.989 612.35 441.772 613.07 443.723 613.07C444.022 613.07 444.312 613.035 444.61 612.982V611.708C444.329 611.734 444.18 611.743 443.907 611.743C442.923 611.743 442.501 611.269 442.501 610.152V604.791H444.61V603.525H442.501V601.073H440.989ZM446.521 613H448.033V603.525H446.521V613ZM447.277 601.601C447.857 601.601 448.331 601.126 448.331 600.546C448.331 599.966 447.857 599.491 447.277 599.491C446.697 599.491 446.222 599.966 446.222 600.546C446.222 601.126 446.697 601.601 447.277 601.601ZM454.399 613.167C457.097 613.167 458.767 611.304 458.767 608.263C458.767 605.213 457.097 603.358 454.399 603.358C451.701 603.358 450.031 605.213 450.031 608.263C450.031 611.304 451.701 613.167 454.399 613.167ZM454.399 611.805C452.606 611.805 451.595 610.504 451.595 608.263C451.595 606.013 452.606 604.721 454.399 604.721C456.192 604.721 457.203 606.013 457.203 608.263C457.203 610.504 456.192 611.805 454.399 611.805ZM460.73 613H462.242V607.393C462.242 605.731 463.217 604.721 464.729 604.721C466.241 604.721 466.962 605.529 466.962 607.234V613H468.473V606.865C468.473 604.615 467.287 603.358 465.16 603.358C463.71 603.358 462.787 603.974 462.312 605.02H462.171V603.525H460.73V613ZM331.874 623.525H330.353L328.49 631.102H328.349L326.231 623.525H324.781L322.663 631.102H322.522L320.659 623.525H319.13L321.784 633H323.313L325.423 625.67H325.563L327.682 633H329.22L331.874 623.525ZM333.521 633H335.032V623.525H333.521V633ZM334.276 621.601C334.856 621.601 335.331 621.126 335.331 620.546C335.331 619.966 334.856 619.491 334.276 619.491C333.696 619.491 333.222 619.966 333.222 620.546C333.222 621.126 333.696 621.601 334.276 621.601ZM338.138 621.073V623.525H336.609V624.791H338.138V630.539C338.138 632.35 338.92 633.07 340.871 633.07C341.17 633.07 341.46 633.035 341.759 632.982V631.708C341.478 631.734 341.328 631.743 341.056 631.743C340.071 631.743 339.65 631.269 339.65 630.152V624.791H341.759V623.525H339.65V621.073H338.138ZM343.722 633H345.234V627.393C345.234 625.793 346.165 624.721 347.862 624.721C349.294 624.721 350.05 625.556 350.05 627.234V633H351.562V626.865C351.562 624.642 350.296 623.358 348.292 623.358C346.842 623.358 345.849 623.974 345.374 625.02H345.234V619.764H343.722V633ZM362.475 633.167C365.174 633.167 366.843 631.304 366.843 628.263C366.843 625.213 365.174 623.358 362.475 623.358C359.777 623.358 358.107 625.213 358.107 628.263C358.107 631.304 359.777 633.167 362.475 633.167ZM362.475 631.805C360.682 631.805 359.672 630.504 359.672 628.263C359.672 626.013 360.682 624.721 362.475 624.721C364.268 624.721 365.279 626.013 365.279 628.263C365.279 630.504 364.268 631.805 362.475 631.805ZM368.806 633H370.318V627.393C370.318 625.731 371.294 624.721 372.806 624.721C374.317 624.721 375.038 625.529 375.038 627.234V633H376.55V626.865C376.55 624.615 375.363 623.358 373.236 623.358C371.786 623.358 370.863 623.974 370.389 625.02H370.248V623.525H368.806V633ZM382.688 624.694C384.19 624.694 385.192 625.802 385.228 627.48H380.007C380.121 625.802 381.176 624.694 382.688 624.694ZM385.184 630.548C384.788 631.383 383.962 631.831 382.74 631.831C381.132 631.831 380.086 630.645 380.007 628.772V628.702H386.818V628.122C386.818 625.178 385.263 623.358 382.705 623.358C380.104 623.358 378.434 625.292 378.434 628.271C378.434 631.269 380.077 633.167 382.705 633.167C384.779 633.167 386.238 632.174 386.695 630.548H385.184ZM401.291 626.426C401.028 624.738 399.621 623.358 397.319 623.358C394.664 623.358 392.977 625.274 392.977 628.228C392.977 631.242 394.673 633.167 397.327 633.167C399.604 633.167 401.019 631.884 401.291 630.144H399.762C399.481 631.216 398.593 631.805 397.319 631.805C395.631 631.805 394.541 630.416 394.541 628.228C394.541 626.083 395.614 624.721 397.319 624.721C398.681 624.721 399.516 625.485 399.762 626.426H401.291ZM403.202 633H404.713V619.764H403.202V633ZM407.274 633H408.786V623.525H407.274V633ZM408.03 621.601C408.61 621.601 409.085 621.126 409.085 620.546C409.085 619.966 408.61 619.491 408.03 619.491C407.45 619.491 406.975 619.966 406.975 620.546C406.975 621.126 407.45 621.601 408.03 621.601ZM419.098 626.426C418.835 624.738 417.429 623.358 415.126 623.358C412.471 623.358 410.784 625.274 410.784 628.228C410.784 631.242 412.48 633.167 415.135 633.167C417.411 633.167 418.826 631.884 419.098 630.144H417.569C417.288 631.216 416.4 631.805 415.126 631.805C413.438 631.805 412.348 630.416 412.348 628.228C412.348 626.083 413.421 624.721 415.126 624.721C416.488 624.721 417.323 625.485 417.569 626.426H419.098ZM422.661 627.665H422.52V619.764H421.009V633H422.52V629.405L423.426 628.562L426.977 633H428.901L424.551 627.586L428.629 623.525H426.774L422.661 627.665ZM430.776 620.309L430.926 628.781H432.385L432.534 620.309H430.776ZM431.664 633.158C432.376 633.158 432.877 632.648 432.877 631.937C432.877 631.216 432.376 630.706 431.664 630.706C430.952 630.706 430.443 631.216 430.443 631.937C430.443 632.648 430.952 633.158 431.664 633.158Z" fill="white"/>
<path d="M338 586.85H416" stroke="url(#paint24_linear_30_548)" stroke-width="0.3"/>
<path d="M357 721C359.209 721 361 719.209 361 717C361 714.791 359.209 713 357 713C354.791 713 353 714.791 353 717C353 719.209 354.791 721 357 721Z" fill="#263F60"/>
<path d="M397 721C399.209 721 401 719.209 401 717C401 714.791 399.209 713 397 713C394.791 713 393 714.791 393 717C393 719.209 394.791 721 397 721Z" fill="#263F60"/>
<path d="M381 713H373C370.791 713 369 714.791 369 717C369 719.209 370.791 721 373 721H381C383.209 721 385 719.209 385 717C385 714.791 383.209 713 381 713Z" fill="white"/>
<path d="M226.134 114.256C228.822 114.256 230.419 112.154 230.419 108.595C230.419 107.254 230.162 106.126 229.672 105.255C228.961 103.9 227.738 103.167 226.193 103.167C223.893 103.167 222.267 104.713 222.267 106.881C222.267 108.917 223.732 110.396 225.746 110.396C226.984 110.396 227.987 109.818 228.485 108.814H228.507C228.507 108.814 228.536 108.814 228.544 108.814C228.558 108.814 228.61 108.814 228.61 108.814C228.61 111.231 227.694 112.674 226.149 112.674C225.241 112.674 224.537 112.176 224.296 111.378H222.413C222.728 113.114 224.2 114.256 226.134 114.256ZM226.2 108.895C224.984 108.895 224.12 108.031 224.12 106.822C224.12 105.643 225.028 104.742 226.207 104.742C227.387 104.742 228.295 105.658 228.295 106.852C228.295 108.031 227.408 108.895 226.2 108.895ZM233.437 112.879C234.132 112.879 234.608 112.381 234.608 111.722C234.608 111.056 234.132 110.565 233.437 110.565C232.748 110.565 232.265 111.056 232.265 111.722C232.265 112.381 232.748 112.879 233.437 112.879ZM233.437 107.386C234.132 107.386 234.608 106.896 234.608 106.236C234.608 105.57 234.132 105.079 233.437 105.079C232.748 105.079 232.265 105.57 232.265 106.236C232.265 106.896 232.748 107.386 233.437 107.386ZM241.611 114H243.42V112.03H244.848V110.433H243.42V103.431H240.754C238.886 106.244 237.399 108.595 236.447 110.345V112.03H241.611V114ZM238.198 110.367C239.428 108.199 240.527 106.463 241.537 104.969H241.64V110.477H238.198V110.367ZM248.877 114H250.766V103.431H248.884L246.123 105.365V107.181L248.752 105.335H248.877V114Z" fill="white"/>
<path opacity="0.35" d="M544.666 103.834H528C526.803 103.834 525.833 104.804 525.833 106.001V112.001C525.833 113.197 526.803 114.167 528 114.167H544.666C545.863 114.167 546.833 113.197 546.833 112.001V106.001C546.833 104.804 545.863 103.834 544.666 103.834Z" stroke="white"/>
<path opacity="0.4" d="M548.333 107.001V111.001C549.138 110.662 549.661 109.874 549.661 109.001C549.661 108.128 549.138 107.339 548.333 107.001Z" fill="white"/>
<path d="M544 105.334H528.666C527.93 105.334 527.333 105.931 527.333 106.667V111.334C527.333 112.07 527.93 112.667 528.666 112.667H544C544.736 112.667 545.333 112.07 545.333 111.334V106.667C545.333 105.931 544.736 105.334 544 105.334Z" fill="white"/>
<path fill-rule="evenodd" clip-rule="evenodd" d="M512.667 105.615C514.892 105.615 517.031 106.469 518.644 108C518.765 108.119 518.959 108.117 519.079 107.997L520.239 106.827C520.3 106.766 520.334 106.683 520.333 106.597C520.333 106.512 520.298 106.429 520.237 106.369C516.005 102.317 509.329 102.317 505.097 106.369C505.035 106.429 505.001 106.511 505 106.597C504.999 106.683 505.033 106.766 505.094 106.827L506.255 107.997C506.374 108.117 506.568 108.119 506.69 108C508.302 106.469 510.442 105.615 512.667 105.615ZM512.667 109.422C513.889 109.422 515.068 109.876 515.974 110.696C516.097 110.812 516.29 110.81 516.409 110.69L517.569 109.52C517.63 109.458 517.663 109.375 517.663 109.289C517.662 109.202 517.626 109.119 517.564 109.059C514.805 106.495 510.532 106.495 507.773 109.059C507.71 109.119 507.675 109.202 507.674 109.289C507.673 109.375 507.707 109.458 507.768 109.52L508.927 110.69C509.047 110.81 509.24 110.812 509.362 110.696C510.268 109.877 511.446 109.423 512.667 109.422ZM514.989 111.984C514.991 112.071 514.957 112.154 514.895 112.215L512.89 114.237C512.831 114.297 512.751 114.33 512.667 114.33C512.583 114.33 512.503 114.297 512.445 114.237L510.439 112.215C510.377 112.154 510.343 112.071 510.345 111.984C510.347 111.897 510.384 111.815 510.449 111.757C511.729 110.675 513.605 110.675 514.886 111.757C514.95 111.815 514.988 111.897 514.989 111.984Z" fill="white"/>
<path fill-rule="evenodd" clip-rule="evenodd" d="M499 103.666H498C497.448 103.666 497 104.114 497 104.666V113.333C497 113.885 497.448 114.333 498 114.333H499C499.552 114.333 500 113.885 500 113.333V104.666C500 104.114 499.552 103.666 499 103.666ZM493.333 105.999H494.333C494.886 105.999 495.333 106.447 495.333 106.999V113.333C495.333 113.885 494.886 114.333 494.333 114.333H493.333C492.781 114.333 492.333 113.885 492.333 113.333V106.999C492.333 106.447 492.781 105.999 493.333 105.999ZM489.667 108.333H488.667C488.114 108.333 487.667 108.78 487.667 109.333V113.333C487.667 113.885 488.114 114.333 488.667 114.333H489.667C490.219 114.333 490.667 113.885 490.667 113.333V109.333C490.667 108.78 490.219 108.333 489.667 108.333ZM485 110.333H484C483.448 110.333 483 110.78 483 111.333V113.333C483 113.885 483.448 114.333 484 114.333H485C485.552 114.333 486 113.885 486 113.333V111.333C486 110.78 485.552 110.333 485 110.333Z" fill="white"/>
<path d="M441.5 883H312.5C311.119 883 310 884.119 310 885.5C310 886.881 311.119 888 312.5 888H441.5C442.881 888 444 886.881 444 885.5C444 884.119 442.881 883 441.5 883Z" fill="white"/>
<path style="mix-blend-mode:screen" d="M528 86H225C205.118 86 189 102.118 189 122V862C189 881.882 205.118 898 225 898H528C547.882 898 564 881.882 564 862V122C564 102.118 547.882 86 528 86Z" fill="url(#paint25_linear_30_548)" fill-opacity="0.25"/>
<path opacity="0.5" d="M580 251H581.5C582.328 251 583 251.672 583 252.5V345.5C583 346.328 582.328 347 581.5 347H580V251Z" fill="black"/>
<path opacity="0.5" d="M173 309H171.5C170.672 309 170 309.672 170 310.5V365.5C170 366.328 170.672 367 171.5 367H173V309Z" fill="black"/>
<path opacity="0.5" d="M173 232H171.5C170.672 232 170 232.672 170 233.5V288.5C170 289.328 170.672 290 171.5 290H173V232Z" fill="black"/>
<path opacity="0.5" d="M173 171H171.5C170.672 171 170 171.672 170 172.5V198.5C170 199.328 170.672 200 171.5 200H173V171Z" fill="black"/>
<path fill-rule="evenodd" clip-rule="evenodd" d="M298 86C300.5 86 303 88.5 303 91V89.75V86H298ZM303 86H451H456C453.155 86 451.019 88.1242 451 90.9627V92.5974C451 100.552 444.552 107 436.598 107H317.403C309.448 107 303 100.552 303 92.5974V86Z" fill="url(#paint26_linear_30_548)"/>
<g opacity="0.75">
<path opacity="0.75" d="M394.5 88H358.5C356.567 88 355 89.567 355 91.5C355 93.433 356.567 95 358.5 95H394.5C396.433 95 398 93.433 398 91.5C398 89.567 396.433 88 394.5 88Z" fill="black"/>
<path opacity="0.75" d="M394.5 88H358.5C356.567 88 355 89.567 355 91.5C355 93.433 356.567 95 358.5 95H394.5C396.433 95 398 93.433 398 91.5C398 89.567 396.433 88 394.5 88Z" fill="black"/>
</g>
<path d="M406.5 97C409.538 97 412 94.5376 412 91.5C412 88.4624 409.538 86 406.5 86C403.462 86 401 88.4624 401 91.5C401 94.5376 403.462 97 406.5 97Z" fill="black"/>
<path d="M406.5 97C409.538 97 412 94.5376 412 91.5C412 88.4624 409.538 86 406.5 86C403.462 86 401 88.4624 401 91.5C401 94.5376 403.462 97 406.5 97Z" fill="black"/>
<path d="M406.5 97C409.538 97 412 94.5376 412 91.5C412 88.4624 409.538 86 406.5 86C403.462 86 401 88.4624 401 91.5C401 94.5376 403.462 97 406.5 97Z" fill="black"/>
<path d="M406.5 97C409.538 97 412 94.5376 412 91.5C412 88.4624 409.538 86 406.5 86C403.462 86 401 88.4624 401 91.5C401 94.5376 403.462 97 406.5 97Z" fill="black"/>
<path opacity="0.15" d="M406.5 95C408.433 95 410 93.433 410 91.5C410 89.567 408.433 88 406.5 88C404.567 88 403 89.567 403 91.5C403 93.433 404.567 95 406.5 95Z" fill="white"/>
</g>
<defs>
<filter id="filter0_f_30_548" x="179" y="888" width="320" height="320" filterUnits="userSpaceOnUse" color-interpolation-filters="sRGB">
<feFlood flood-opacity="0" result="BackgroundImageFix"/>
<feBlend mode="normal" in="SourceGraphic" in2="BackgroundImageFix" result="shape"/>
<feGaussianBlur stdDeviation="5" result="effect1_foregroundBlur_30_548"/>
</filter>
<filter id="filter1_f_30_548" x="554" y="76" width="320" height="320" filterUnits="userSpaceOnUse" color-interpolation-filters="sRGB">
<feFlood flood-opacity="0" result="BackgroundImageFix"/>
<feBlend mode="normal" in="SourceGraphic" in2="BackgroundImageFix" result="shape"/>
<feGaussianBlur stdDeviation="5" result="effect1_foregroundBlur_30_548"/>
</filter>
<filter id="filter2_dd_30_548" x="103" y="0" width="707" height="1144" filterUnits="userSpaceOnUse" color-interpolation-filters="sRGB">
<feFlood flood-opacity="0" result="BackgroundImageFix"/>
<feColorMatrix in="SourceAlpha" type="matrix" values="0 0 0 0 0 0 0 0 0 0 0 0 0 0 0 0 0 0 127 0" result="hardAlpha"/>
<feOffset dx="80" dy="80"/>
<feGaussianBlur stdDeviation="75"/>
<feColorMatrix type="matrix" values="0 0 0 0 0 0 0 0 0 0 0 0 0 0 0 0 0 0 0.25 0"/>
<feBlend mode="normal" in2="BackgroundImageFix" result="effect1_dropShadow_30_548"/>
<feColorMatrix in="SourceAlpha" type="matrix" values="0 0 0 0 0 0 0 0 0 0 0 0 0 0 0 0 0 0 127 0" result="hardAlpha"/>
<feOffset dx="20" dy="20"/>
<feGaussianBlur stdDeviation="25"/>
<feColorMatrix type="matrix" values="0 0 0 0 0 0 0 0 0 0 0 0 0 0 0 0 0 0 0.35 0"/>
<feBlend mode="normal" in2="effect1_dropShadow_30_548" result="effect2_dropShadow_30_548"/>
<feBlend mode="normal" in="SourceGraphic" in2="effect2_dropShadow_30_548" result="shape"/>
</filter>
<linearGradient id="paint0_linear_30_548" x1="123.213" y1="536.607" x2="221.325" y2="902.767" gradientUnits="userSpaceOnUse">
<stop stop-color="#8A42FF"/>
<stop offset="1" stop-color="#99BCFF" stop-opacity="0"/>
</linearGradient>
<linearGradient id="paint1_linear_30_548" x1="72.9566" y1="453.985" x2="97.0365" y2="543.852" gradientUnits="userSpaceOnUse">
<stop stop-color="#8A42FF"/>
<stop offset="1" stop-color="#99BCFF" stop-opacity="0"/>
</linearGradient>
<linearGradient id="paint2_linear_30_548" x1="58.5414" y1="555.917" x2="75.7798" y2="620.251" gradientUnits="userSpaceOnUse">
<stop stop-color="#8A42FF"/>
<stop offset="1" stop-color="#99BCFF" stop-opacity="0"/>
</linearGradient>
<linearGradient id="paint3_linear_30_548" x1="122.808" y1="532.589" x2="141.352" y2="601.795" gradientUnits="userSpaceOnUse">
<stop stop-color="#8A42FF"/>
<stop offset="1" stop-color="#99BCFF" stop-opacity="0"/>
</linearGradient>
<linearGradient id="paint4_linear_30_548" x1="87.1344" y1="640.365" x2="103.205" y2="700.343" gradientUnits="userSpaceOnUse">
<stop stop-color="#8A42FF"/>
<stop offset="1" stop-color="#99BCFF" stop-opacity="0"/>
</linearGradient>
<linearGradient id="paint5_linear_30_548" x1="148.319" y1="607.668" x2="167.886" y2="680.692" gradientUnits="userSpaceOnUse">
<stop stop-color="#8A42FF"/>
<stop offset="1" stop-color="#99BCFF" stop-opacity="0"/>
</linearGradient>
<linearGradient id="paint6_linear_30_548" x1="122.045" y1="722.357" x2="136.755" y2="777.252" gradientUnits="userSpaceOnUse">
<stop stop-color="#8A42FF"/>
<stop offset="1" stop-color="#99BCFF" stop-opacity="0"/>
</linearGradient>
<linearGradient id="paint7_linear_30_548" x1="179.395" y1="679.539" x2="199.991" y2="756.405" gradientUnits="userSpaceOnUse">
<stop stop-color="#8A42FF"/>
<stop offset="1" stop-color="#99BCFF" stop-opacity="0"/>
</linearGradient>
<linearGradient id="paint8_linear_30_548" x1="160.969" y1="796.509" x2="175.071" y2="849.138" gradientUnits="userSpaceOnUse">
<stop stop-color="#8A42FF"/>
<stop offset="1" stop-color="#99BCFF" stop-opacity="0"/>
</linearGradient>
<linearGradient id="paint9_linear_30_548" x1="216.5" y1="749.343" x2="237.509" y2="827.748" gradientUnits="userSpaceOnUse">
<stop stop-color="#8A42FF"/>
<stop offset="1" stop-color="#99BCFF" stop-opacity="0"/>
</linearGradient>
<linearGradient id="paint10_linear_30_548" x1="639.139" y1="270.04" x2="520.279" y2="706.114" gradientUnits="userSpaceOnUse">
<stop stop-color="#6AA5FC"/>
<stop offset="1" stop-color="#99BCFF" stop-opacity="0"/>
</linearGradient>
<linearGradient id="paint11_linear_30_548" x1="699.484" y1="171.787" x2="670.312" y2="278.814" gradientUnits="userSpaceOnUse">
<stop stop-color="#6AA5FC"/>
<stop offset="1" stop-color="#99BCFF" stop-opacity="0"/>
</linearGradient>
<linearGradient id="paint12_linear_30_548" x1="716.149" y1="293.396" x2="695.265" y2="370.014" gradientUnits="userSpaceOnUse">
<stop stop-color="#6AA5FC"/>
<stop offset="1" stop-color="#99BCFF" stop-opacity="0"/>
</linearGradient>
<linearGradient id="paint13_linear_30_548" x1="639.642" y1="265.251" x2="617.177" y2="347.672" gradientUnits="userSpaceOnUse">
<stop stop-color="#6AA5FC"/>
<stop offset="1" stop-color="#99BCFF" stop-opacity="0"/>
</linearGradient>
<linearGradient id="paint14_linear_30_548" x1="681.623" y1="393.938" x2="662.154" y2="465.367" gradientUnits="userSpaceOnUse">
<stop stop-color="#6AA5FC"/>
<stop offset="1" stop-color="#99BCFF" stop-opacity="0"/>
</linearGradient>
<linearGradient id="paint15_linear_30_548" x1="608.84" y1="354.639" x2="585.135" y2="441.606" gradientUnits="userSpaceOnUse">
<stop stop-color="#6AA5FC"/>
<stop offset="1" stop-color="#99BCFF" stop-opacity="0"/>
</linearGradient>
<linearGradient id="paint16_linear_30_548" x1="639.578" y1="491.518" x2="621.758" y2="556.895" gradientUnits="userSpaceOnUse">
<stop stop-color="#6AA5FC"/>
<stop offset="1" stop-color="#99BCFF" stop-opacity="0"/>
</linearGradient>
<linearGradient id="paint17_linear_30_548" x1="571.418" y1="440.172" x2="546.467" y2="531.714" gradientUnits="userSpaceOnUse">
<stop stop-color="#6AA5FC"/>
<stop offset="1" stop-color="#99BCFF" stop-opacity="0"/>
</linearGradient>
<linearGradient id="paint18_linear_30_548" x1="592.787" y1="579.731" x2="575.703" y2="642.409" gradientUnits="userSpaceOnUse">
<stop stop-color="#6AA5FC"/>
<stop offset="1" stop-color="#99BCFF" stop-opacity="0"/>
</linearGradient>
<linearGradient id="paint19_linear_30_548" x1="526.819" y1="523.209" x2="501.368" y2="616.585" gradientUnits="userSpaceOnUse">
<stop stop-color="#6AA5FC"/>
<stop offset="1" stop-color="#99BCFF" stop-opacity="0"/>
</linearGradient>
<linearGradient id="paint20_linear_30_548" x1="201.775" y1="848.58" x2="359.604" y2="1036.86" gradientUnits="userSpaceOnUse">
<stop stop-opacity="0.35"/>
<stop offset="1" stop-opacity="0"/>
</linearGradient>
<linearGradient id="paint21_linear_30_548" x1="569.369" y1="93.4479" x2="729.298" y2="253.871" gradientUnits="userSpaceOnUse">
<stop stop-opacity="0.35"/>
<stop offset="0.796875" stop-opacity="0"/>
</linearGradient>
<linearGradient id="paint22_linear_30_548" x1="222.683" y1="70" x2="553.01" y2="267.618" gradientUnits="userSpaceOnUse">
<stop stop-color="#3E3E3E"/>
<stop offset="1"/>
</linearGradient>
<linearGradient id="paint23_linear_30_548" x1="376.676" y1="777.12" x2="376.676" y2="800.88" gradientUnits="userSpaceOnUse">
<stop stop-color="white"/>
<stop offset="1" stop-color="white"/>
</linearGradient>
<linearGradient id="paint24_linear_30_548" x1="-nan" y1="-nan" x2="-nan" y2="-nan" gradientUnits="userSpaceOnUse">
<stop stop-color="white" stop-opacity="0"/>
<stop offset="0.508333" stop-color="white"/>
<stop offset="1" stop-color="white" stop-opacity="0"/>
</linearGradient>
<linearGradient id="paint25_linear_30_548" x1="192.43" y1="90.5811" x2="542.099" y2="439.05" gradientUnits="userSpaceOnUse">
<stop stop-color="white"/>
<stop offset="0.645833" stop-color="white" stop-opacity="0"/>
</linearGradient>
<linearGradient id="paint26_linear_30_548" x1="298" y1="86" x2="455" y2="86" gradientUnits="userSpaceOnUse">
<stop stop-color="#323232"/>
<stop offset="1" stop-color="#1D1D1D"/>
</linearGradient>
<clipPath id="clip0_30_548">
<rect width="771" height="1208" fill="white" transform="translate(103)"/>
</clipPath>
</defs>
</svg>
