<svg width="276" height="167" viewBox="0 0 276 167" fill="none" xmlns="http://www.w3.org/2000/svg">
<path d="M65.7031 166.516C105.937 166.516 130.234 135.891 130.313 83.1562C130.391 30.8125 105.781 0.812494 65.7031 0.812494C25.5469 0.812494 1.17188 30.7344 1.09375 83.1562C0.9375 135.734 25.3906 166.438 65.7031 166.516ZM65.7031 138.469C47.3437 138.469 35.4688 120.031 35.5469 83.1562C35.625 46.8281 47.4219 28.5469 65.7031 28.5469C83.9063 28.5469 95.7813 46.8281 95.7813 83.1562C95.8594 120.031 83.9844 138.469 65.7031 138.469ZM213.574 165.187C249.512 165.187 275.215 145.422 275.137 118.078C275.215 98.1563 262.559 83.9375 239.043 80.9687V79.7187C256.934 76.5156 269.277 63.8594 269.199 45.8906C269.277 20.6562 247.168 0.812494 214.043 0.812494C181.23 0.812494 156.543 20.0312 156.074 47.6875H188.496C188.887 35.5 200.059 27.6094 213.887 27.6094C227.559 27.6094 236.699 35.8906 236.621 47.9219C236.699 60.5 225.996 69.0156 210.605 69.0156H195.684V93.8594H210.605C228.73 93.8594 240.059 102.922 239.98 115.812C240.059 128.547 229.121 137.297 213.652 137.297C198.73 137.297 187.559 129.484 186.934 117.766H152.871C153.418 145.734 178.418 165.187 213.574 165.187Z" fill="url(#paint0_linear_20_2022)" fill-opacity="0.08"/>
<defs>
<linearGradient id="paint0_linear_20_2022" x1="142.5" y1="-12" x2="142.5" y2="180.5" gradientUnits="userSpaceOnUse">
<stop stop-color="#10A6C9"/>
<stop offset="1" stop-color="#09364C" stop-opacity="0"/>
</linearGradient>
</defs>
</svg>
