<svg width="269" height="167" viewBox="0 0 269 167" fill="none" xmlns="http://www.w3.org/2000/svg">
<path d="M65.7031 166.516C105.937 166.516 130.234 135.891 130.313 83.1562C130.391 30.8125 105.781 0.812494 65.7031 0.812494C25.5469 0.812494 1.17188 30.7344 1.09375 83.1562C0.9375 135.734 25.3906 166.438 65.7031 166.516ZM65.7031 138.469C47.3437 138.469 35.4688 120.031 35.5469 83.1562C35.625 46.8281 47.4219 28.5469 65.7031 28.5469C83.9063 28.5469 95.7813 46.8281 95.7813 83.1562C95.8594 120.031 83.9844 138.469 65.7031 138.469ZM154.434 163H268.496V135.344H201.309V134.25L224.668 111.359C257.559 81.3594 266.387 66.3594 266.387 48.1562C266.387 20.4219 243.73 0.812494 209.434 0.812494C175.84 0.812494 152.793 20.8906 152.871 52.2969H184.98C184.902 36.9844 194.59 27.6094 209.199 27.6094C223.262 27.6094 233.73 36.3594 233.73 50.4219C233.73 63.1562 225.918 71.9062 211.387 85.8906L154.434 138.625V163Z" fill="url(#paint0_linear_20_1556)" fill-opacity="0.08"/>
<defs>
<linearGradient id="paint0_linear_20_1556" x1="142.5" y1="-12" x2="142.5" y2="175.5" gradientUnits="userSpaceOnUse">
<stop stop-color="#10A6C9"/>
<stop offset="1" stop-color="#09364C" stop-opacity="0"/>
</linearGradient>
</defs>
</svg>
