<svg width="21" height="21" viewBox="0 0 21 21" fill="none" xmlns="http://www.w3.org/2000/svg">
<path d="M4.0725 8.76375C5.6925 11.9475 8.3025 14.5575 11.4862 16.1775L13.9613 13.7025C14.2762 13.3875 14.715 13.2975 15.1088 13.4213C16.3687 13.8375 17.7188 14.0625 19.125 14.0625C19.4234 14.0625 19.7095 14.181 19.9205 14.392C20.1315 14.603 20.25 14.8891 20.25 15.1875V19.125C20.25 19.4234 20.1315 19.7095 19.9205 19.9205C19.7095 20.1315 19.4234 20.25 19.125 20.25C14.0527 20.25 9.18822 18.2351 5.60158 14.6484C2.01495 11.0618 0 6.19727 0 1.125C0 0.826631 0.118526 0.540483 0.329505 0.329505C0.540483 0.118526 0.826631 0 1.125 0H5.0625C5.36087 0 5.64702 0.118526 5.858 0.329505C6.06897 0.540483 6.1875 0.826631 6.1875 1.125C6.1875 2.53125 6.4125 3.88125 6.82875 5.14125C6.9525 5.535 6.8625 5.97375 6.5475 6.28875L4.0725 8.76375Z" fill="#10A6C9"/>
</svg>
